<svg xmlns="http://www.w3.org/2000/svg" viewBox="0 0 359.15 417.19"><defs><style>.cls-1,.cls-4{fill:#231f20;}.cls-1{stroke:#231f20;stroke-miterlimit:22.93;stroke-width:0.46px;}.cls-1,.cls-2,.cls-3,.cls-4,.cls-5{fill-rule:evenodd;}.cls-2{fill:#fff;}.cls-3{fill:#b98458;}.cls-5{fill:#d44530;}</style></defs><title>Asset 2</title><g id="Layer_2" data-name="Layer 2"><g id="Layer_1-2" data-name="Layer 1"><path class="cls-1" d="M12.64,181.28C43.78,98.56,99.81,38,181.9,11.82c75.44,23.56,130.92,82.1,165.33,171.46-4.05,2.87-4.14,9.1-5.18,15.29a40.52,40.52,0,0,0-1,5.83c-1,33.14-1.3,84.81-25.11,125.53-11.61,19.86-15.71,42.44-27.89,60.21-69.21,24-140.38,27.32-214.45.36C32.63,324.07,13.07,254.2,12.64,181.28Z"/><path class="cls-2" d="M180.31,296.22c1.21-5.59,15.55-8.63,21.14-17.13,8.38-16.77-2.19-27.46.12-38,47.63-19,56.5-53.59,48.84-97.33-5.59-23.81-18.35-42-29.64-46.65-.37,1.46-.61,2.79-.86,4.13-9.72-14.82-36.57-23.94-39.6-32.56-3,8.62-30.74,17.74-40.46,32.56-.25-1.34-.49-2.67-.85-4.13-11.3,4.62-23.21,22.84-28.8,46.65-7,44,1.09,79.83,47.75,97.33,1.7,12.63-9.11,23.32.73,38.75C167.79,290,178.24,291.11,180.31,296.22Z"/><path class="cls-2" d="M36.14,177.81l15.5,3.87q5.19,1.29,6.93,3.81c1.17,1.68,1.37,4,.63,7s-2,4.83-3.77,5.82-4.22,1.13-7.27.37L32,194.64l1.28-5.14,14.87,3.71q4.24,1,5.56.62a3,3,0,0,0,1.8-2.33,2.73,2.73,0,0,0-.65-2.86c-.73-.69-2.41-1.36-5.07-2l-14.87-3.71,1.27-5.1Zm26,1.5,1.75-4.56-14.28-5.17c-.8-.3-1.78-.63-2.95-1s-2.52-.8-4.07-1.25c1.81.2,3.47.36,5,.47s2.84.19,3.95.21l14.87.17,2.5-6.51-23.79-9.14-1.76,4.6,13.82,5c1.31.5,2.54.94,3.71,1.31s2.27.7,3.33,1c-1.43-.22-2.91-.38-4.44-.49s-3.12-.18-4.77-.2L41,163.5l-2.56,6.68,23.79,9.13Zm8.76-21.54L48,146.6l2.28-4.67,22.9,11.17-2.28,4.67Zm6.3-12.36,3.05-5.51L61.2,121.71l-2.61,4.7,10.17,9.11c.91.83,1.92,1.67,3,2.55s2.32,1.77,3.62,2.69c-.89-.39-1.92-.79-3.1-1.2s-2.8-.95-4.91-1.62l-12.89-4.17-2.7,4.87,25.42,6.77ZM85,132.15,64.11,117.54,72,106.25l3.23,2.27-4.82,6.88,5,3.48,4.43-6.33L83,114.8l-4.43,6.33,6.09,4.26,5-7.13,3.37,2.36L85,132.15ZM80.78,95l-5,5.71L95,117.44l3.51-4-7.93-6.89,1.46-1.68a2.72,2.72,0,0,1,2-1.15,4.41,4.41,0,0,1,2.48,1.22l1.54,1.29a22,22,0,0,0,4.07,3l3.63-4.18a11.92,11.92,0,0,1-2-1.11,22.48,22.48,0,0,1-2.36-1.84c-.11-.09-.27-.24-.47-.44l-.46-.44c-1.66-1.44-2.95-2.19-3.89-2.28a4.89,4.89,0,0,0-3.26,1.29,4.36,4.36,0,0,0,.4-3.44A8.88,8.88,0,0,0,91,93.24q-2.8-2.43-5-2.1c-1.44.22-3.19,1.51-5.23,3.87Zm6.84,8.9L82.31,99.3l.93-1.07a4.36,4.36,0,0,1,2.48-1.76,3.6,3.6,0,0,1,2.51,1.18,3.83,3.83,0,0,1,1.59,2.49,4.2,4.2,0,0,1-1.34,2.78l-.86,1Zm14.43-6.74,3.9-3.76.47.48a4.51,4.51,0,0,0,2.43,1.56,2.68,2.68,0,0,0,2.18-.94,2.58,2.58,0,0,0,.88-1.89,2.87,2.87,0,0,0-.91-2q-1.26-1.31-5.23-.55l-.38.08c-1.39.27-2.51.47-3.37.61a14.51,14.51,0,0,1-2,.21A7.72,7.72,0,0,1,97,90.6,6.73,6.73,0,0,1,94.67,89a6.42,6.42,0,0,1-2-5.19,8.67,8.67,0,0,1,2.91-5.45q2.74-2.66,5.36-2.72A6.72,6.72,0,0,1,106,78l.47.48-3.79,3.66-.09-.1a4.76,4.76,0,0,0-2.35-1.5,2.25,2.25,0,0,0-2,.7,2.56,2.56,0,0,0-.86,1.81A2.61,2.61,0,0,0,98.18,85q1.42,1.48,6.43.29l2-.44a11.76,11.76,0,0,1,4.62-.22,6.08,6.08,0,0,1,3.12,1.83,7,7,0,0,1,2.33,5.53c-.17,1.91-1.29,3.86-3.33,5.83s-3.75,2.8-5.47,2.81-3.48-.9-5.25-2.74l-.29-.32c-.12-.15-.23-.26-.31-.35ZM122.28,89l3.93-3.41L109.49,66.33l-3.93,3.42L122.28,89Zm10.59-8.75,4.32-3.37L124.07,60.08l4.6-3.6-2.57-3.29L112.61,63.73,115.18,67l4.58-3.57,13.11,16.78Zm8.8-18.43,4.56-3L138,51l3.67,10.79Zm11.74,3.8-4.23-4-6.2,4,2,5.49L140.44,74l-7.85-25.28,5.7-3.7,19.82,17.51-4.7,3ZM156,54.53c.06.11.13.24.21.42s.15.31.2.39q1.84,3.34,4.36,4c1.66.44,3.67,0,6-1.29s4.06-3,4.72-4.77a7,7,0,0,0-.81-6,6.11,6.11,0,0,0-2.54-2.57,11.84,11.84,0,0,0-4.53-1l-2.06-.1c-3.43-.1-5.47-.75-6.14-2a2.59,2.59,0,0,1-.32-2,2.51,2.51,0,0,1,1.3-1.53,2.23,2.23,0,0,1,2.14-.15,4.64,4.64,0,0,1,1.88,2l.06.12,4.61-2.55-.33-.59a6.75,6.75,0,0,0-4.22-3.65c-1.69-.4-3.65,0-5.88,1.25a8.66,8.66,0,0,0-4.22,4.51,6.43,6.43,0,0,0,.56,5.52,6.77,6.77,0,0,0,1.8,2.19,7.94,7.94,0,0,0,2.85,1.17,14.34,14.34,0,0,0,2,.31c.86.09,2,.18,3.41.28l.38,0q4,.28,4.91,1.88a2.82,2.82,0,0,1,.37,2.14,2.55,2.55,0,0,1-1.34,1.6,2.69,2.69,0,0,1-2.35.34,4.64,4.64,0,0,1-1.94-2.14l-.32-.58Z"/><path class="cls-2" d="M204,37.71l-8.27,15.56,2,1.08a3.67,3.67,0,0,0,3.88.16c1.1-.69,2.49-2.64,4.2-5.85s2.53-5.45,2.5-6.74a3.7,3.7,0,0,0-2.3-3.13l-2-1.08Zm-3-5.95,7.43,3.95q4.35,2.31,4.79,5.73t-2.9,9.71C208.16,55.33,206,57.94,204,59s-4.53.78-7.43-.76l-7.43-4,12-22.5Zm6.66,33.06L220.86,43l4.46,2.68L212.19,67.5l-4.46-2.68Zm30.55-10.48-6.94-5-15,20.61,4.51,3.27,6-8.27,2.46,1.78.25.19a13.74,13.74,0,0,0,3.29,1.92,5,5,0,0,0,2.38.15,5.84,5.84,0,0,0,2.51-1.18,12.42,12.42,0,0,0,2.44-2.58q2.5-3.45,2.11-5.83c-.27-1.58-1.61-3.26-4-5Zm-4.85,1.44,1.81,1.31A3.62,3.62,0,0,1,237,59.27a4,4,0,0,1-1,2.64,4.11,4.11,0,0,1-2.3,1.87,4.43,4.43,0,0,1-3-1.18l-1.43-1,4.2-5.78ZM238,87.45A11.28,11.28,0,0,1,235.8,85a6.5,6.5,0,0,1-1-2.57,7.63,7.63,0,0,1,.89-4.47,32.43,32.43,0,0,1,4.56-6.27,34.8,34.8,0,0,1,4.38-4.41A9.5,9.5,0,0,1,248,65.39a5.83,5.83,0,0,1,3.47.13,10.18,10.18,0,0,1,3.62,2.14,11.35,11.35,0,0,1,2.22,2.56,6.79,6.79,0,0,1,1,2.63,7.39,7.39,0,0,1-.8,4.19,28.53,28.53,0,0,1-4.08,5.69,43.27,43.27,0,0,1-4.94,5,9.73,9.73,0,0,1-3.48,1.88,6.06,6.06,0,0,1-3.49-.12A9.81,9.81,0,0,1,238,87.45Zm6.16-12.13q3.62-4.16,5.31-5a2.59,2.59,0,0,1,3.11.37,2.54,2.54,0,0,1,.79,3c-.39,1.18-1.76,3.11-4.09,5.78q-3.94,4.54-5.62,5.38a2.59,2.59,0,0,1-3.11-.4,2.53,2.53,0,0,1-.73-3c.43-1.22,1.88-3.24,4.34-6.08Zm3.39,20.4,3.33,3.58,10.91-10.57c.61-.59,1.35-1.33,2.19-2.21s1.82-1.92,2.91-3.12q-1.47,2.31-2.62,4.29c-.77,1.32-1.41,2.47-1.92,3.46l-6.67,13.29,4.76,5.11,18.64-17.38-3.36-3.6L265.17,98.81c-1,1-2,1.87-2.8,2.76s-1.63,1.73-2.34,2.57c.83-1.19,1.62-2.45,2.39-3.78s1.53-2.72,2.27-4.2L271,83.57l-4.87-5.23L247.53,95.72ZM263,113.19,283.1,97.5l8.48,10.85-3.1,2.43-5.17-6.62-4.79,3.74,4.75,6.09-3.09,2.41-4.75-6.08-5.86,4.57,5.36,6.87-3.24,2.53L263,113.19ZM294,134.51l-4.13-6.61L286.45,130l1.56,2.49-4.84,3c-.41-.41-.76-.77-1-1.1a8.6,8.6,0,0,1-.69-.94,3.44,3.44,0,0,1-.39-3.67q.9-1.62,6.19-4.92,5-3.14,6.87-3.43a3,3,0,0,1,3.23,3.87,5.55,5.55,0,0,1-2.32,2.33l-.27.17,2.78,4.44.32-.2a7.67,7.67,0,0,0,3.82-4.85,8.43,8.43,0,0,0-1.52-6.18,11.52,11.52,0,0,0-3-3.33,5.94,5.94,0,0,0-3.33-1.18,9.44,9.44,0,0,0-3.72.73,33.54,33.54,0,0,0-5.29,2.82,35.19,35.19,0,0,0-6.52,4.85,7.6,7.6,0,0,0-2.12,3.95,6.61,6.61,0,0,0,.28,2.93,16,16,0,0,0,1.73,3.58,28.24,28.24,0,0,0,1.88,2.63q1.11,1.41,2.87,3.34l11-6.86Zm-6,18.27a11.08,11.08,0,0,1-1.09-3.14,6.49,6.49,0,0,1,0-2.76,7.65,7.65,0,0,1,2.5-3.8A32.55,32.55,0,0,1,296,139a36.3,36.3,0,0,1,5.72-2.45,9.49,9.49,0,0,1,3.85-.43,5.93,5.93,0,0,1,3.17,1.42,10.57,10.57,0,0,1,2.56,3.35,11,11,0,0,1,1.09,3.2,6.92,6.92,0,0,1,0,2.81,7.35,7.35,0,0,1-2.32,3.59,27.61,27.61,0,0,1-5.91,3.74,42.11,42.11,0,0,1-6.47,2.83,9.8,9.8,0,0,1-3.93.44,6.05,6.05,0,0,1-3.19-1.41,9.84,9.84,0,0,1-2.55-3.28Zm10.25-8.94q4.92-2.49,6.81-2.66a2.59,2.59,0,0,1,2.75,1.51,2.54,2.54,0,0,1-.39,3.05c-.81.95-2.79,2.22-6,3.83q-5.36,2.75-7.22,2.88a2.61,2.61,0,0,1-2.74-1.53,2.55,2.55,0,0,1,.45-3.07c.86-1,3-2.3,6.3-4Zm21.95,18.21L317.43,155l-23.8,9.13,1.92,5,9.8-3.76.8,2.08a2.72,2.72,0,0,1,.06,2.33,4.43,4.43,0,0,1-2.24,1.62l-1.86.75a22.47,22.47,0,0,0-4.57,2.18l2,5.17a11.67,11.67,0,0,1,1.94-1.29A22.18,22.18,0,0,1,304.2,177c.14-.06.34-.12.61-.21l.61-.2q3.06-1.19,3.84-2.37a5,5,0,0,0,.39-3.48,4.32,4.32,0,0,0,2.85,2,8.8,8.8,0,0,0,4.4-.77c2.31-.89,3.71-2,4.19-3.41s.17-3.53-.95-6.44Zm-11.08,1.86,6.57-2.52.51,1.32a4.5,4.5,0,0,1,.39,3,3.66,3.66,0,0,1-2.22,1.67,3.88,3.88,0,0,1-2.95.23,4.26,4.26,0,0,1-1.83-2.49l-.47-1.23Zm-6.4,27a10.94,10.94,0,0,1-.52-3.28,6.46,6.46,0,0,1,.51-2.71,7.62,7.62,0,0,1,3.13-3.31A32.53,32.53,0,0,1,313,178.7a36.13,36.13,0,0,1,6.06-1.42,9.34,9.34,0,0,1,3.86.25,5.79,5.79,0,0,1,2.87,1.94,10.55,10.55,0,0,1,1.95,3.75,11.29,11.29,0,0,1,.52,3.34,6.86,6.86,0,0,1-.54,2.76,7.38,7.38,0,0,1-2.9,3.14,28.32,28.32,0,0,1-6.47,2.65,42.19,42.19,0,0,1-6.86,1.66,9.51,9.51,0,0,1-3.95-.25,6,6,0,0,1-2.9-1.94,9.88,9.88,0,0,1-1.94-3.67Zm11.65-7c-3.59,1.1-5.89,2-6.9,2.85a2.54,2.54,0,0,0-1,2.94,2.6,2.6,0,0,0,2.43,2q1.86.18,7.62-1.58,5.08-1.56,6.53-2.74a2.53,2.53,0,0,0,.91-2.94,2.58,2.58,0,0,0-2.44-2C320.21,182.33,317.83,182.81,314.31,183.89Z"/><path class="cls-2" d="M92.8,374.2,98,375.5l-.17.65a4.62,4.62,0,0,0,0,2.87,2.66,2.66,0,0,0,1.94,1.34,2.57,2.57,0,0,0,2.06-.25A2.84,2.84,0,0,0,103,378.3c.29-1.16-.47-2.73-2.29-4.69l-.27-.28c-1-1-1.72-1.87-2.29-2.52a17.27,17.27,0,0,1-1.23-1.56,8,8,0,0,1-1.27-2.79,6.74,6.74,0,0,1,.17-2.81,6.41,6.41,0,0,1,3.34-4.4,8.62,8.62,0,0,1,6.13-.42q3.68.92,5.12,3.09a6.7,6.7,0,0,1,.6,5.51l-.17.65-5.08-1.27,0-.13a4.71,4.71,0,0,0,0-2.77,2.21,2.21,0,0,0-1.66-1.34,2.52,2.52,0,0,0-2,.23,2.59,2.59,0,0,0-1.13,1.69c-.33,1.32.71,3.18,3.14,5.57l1.44,1.48a11.54,11.54,0,0,1,2.62,3.78,6.13,6.13,0,0,1,.11,3.59,7,7,0,0,1-3.45,4.88c-1.7.86-3.93.95-6.67.27q-3.87-1-5.25-3.14c-.92-1.46-1.07-3.41-.46-5.87l.13-.41a3.38,3.38,0,0,0,.12-.44Zm18.77,12.51,13.79,2.43.71-4-8.52-1.51,1.28-7.27,7.56,1.33.68-3.84-7.56-1.33,1-6,8.22,1.45.68-3.85L116,361.76l-4.4,24.95Zm18.5,3.71,2.65-25.2,8.11.85,1.95,15.82A20.65,20.65,0,0,1,143,384c0,.86.05,1.92.05,3.17.14-.87.32-1.73.53-2.6s.45-1.74.72-2.59l4.8-15.08,8.44.89L154.84,393l-4.9-.52,2-17.2c.15-1.3.3-2.46.44-3.49s.3-2,.46-2.8l-7.72,23-5-.53-3.05-24.16c0,1.55-.12,3.64-.35,6.25v.14L135.21,391l-5.14-.54ZM166.66,384l5.42.1-2.44-11-3,10.92Zm7.57,9.67L173,388l-7.35-.13-1.44,5.61-5.33-.1,7.59-25.21,6.75.12,6.6,25.46-5.56-.1Zm16.15-25.23c3.1-.11,5.23.28,6.37,1.18s1.76,2.58,1.84,5.05a8.86,8.86,0,0,1-.69,4.39,4.36,4.36,0,0,1-2.78,2,4.86,4.86,0,0,1,3.15,1.49c.57.75.9,2.2,1,4.38,0,.14,0,.35,0,.63s0,.5,0,.64a24.68,24.68,0,0,0,.26,3,12.16,12.16,0,0,0,.59,2.24l-5.51.19a22.51,22.51,0,0,1-.57-5c0-.85-.07-1.52-.1-2a4.39,4.39,0,0,0-.8-2.63,2.73,2.73,0,0,0-2.21-.7l-2.21.08.36,10.44-5.3.18-.89-25.32,7.52-.26Zm-1.83,11,1.31,0a4.22,4.22,0,0,0,2.93-.92,3.83,3.83,0,0,0,.73-2.84,3.57,3.57,0,0,0-.85-2.63,4.36,4.36,0,0,0-3-.61l-1.4.05.24,7Zm21,3.63,5.38-.57-3.76-10.64L209.52,383Zm8.69,8.68-1.94-5.47L209,387l-.75,5.75-5.29.55,4.45-25.95,6.72-.7,9.65,24.46-5.53.59Zm9.22-1.22,4.78-.84-2.91-14.82c-.16-.83-.37-1.84-.65-3s-.62-2.55-1-4.11q1.13,2.48,2.15,4.51c.68,1.36,1.3,2.52,1.85,3.47l7.47,12.77,6.83-1.21-4.4-24.95-4.82.85,2.84,14.32c.24,1.38.5,2.65.78,3.83s.57,2.3.89,3.34c-.55-1.33-1.17-2.67-1.86-4s-1.44-2.75-2.28-4.16L230,364.31l-7,1.24,4.41,24.95Zm37.37-21.4,2.9,12.54c-1.6.68-2.95,1.22-4.07,1.61a28.54,28.54,0,0,1-3.09.92,15.15,15.15,0,0,1-3.92.46,6.54,6.54,0,0,1-2.85-.68,7.57,7.57,0,0,1-3-3.27,35.33,35.33,0,0,1-2.44-7.7,32.59,32.59,0,0,1-.94-5.88,9.42,9.42,0,0,1,.51-3.74,6,6,0,0,1,2.2-2.75,11.28,11.28,0,0,1,4.08-1.69,8.33,8.33,0,0,1,6.31.57,7.56,7.56,0,0,1,3.31,5.16l.09.36-5.07,1.18-.07-.3a5.61,5.61,0,0,0-1.45-2.95,3,3,0,0,0-4.68,1.79c-.22,1.23.12,3.76,1,7.57q1.4,6,2.62,7.41a3.41,3.41,0,0,0,3.58.82,8.58,8.58,0,0,0,1.11-.34c.39-.15.85-.36,1.37-.62L261,374.05l-2.85.66-.89-3.87Z"/><path class="cls-2" d="M179.33,354.54c6.81-14.34,38.76-10.33,58-22,22.35-10.45,23.81-30.87,24.06-47.15,4.37,0,8-1.21,9.47-5.34,1.22-7.54-9.23-9.24-13.85-3.4-5.83,5.1,4.62,15.55-12.88,29.16-8,5.83-5.83,11.42-8.5,14.09-3.16,1.94-10.94,1.21-2.19-6.32,8.26-6.07,10.45-10.93,6.56-21.87-2.18,9.72-8.5,11.18-12.15,15.55-4.37,6.32-3.16,13.37-5.83,15.56-3.16,3.15-7.29.72-2.92-6.32,5.84-5.59,11.43-12.64,7.78-25.76-3.4,10-9.23,13.85-12.39,18-6.56,7.78-4.86,13.61-6.56,17.74-2.68,3.89-7,.73-3.65-5.83,3.89-10.21,15.31-18.71,7.53-32.81-1.45,10-9.23,14.58-12.87,20.42-2.68,5.58-.49,18-3.65,20.41-3.16,1.94-6.07.24-4.62-4.38.73-9.23,12.64-15.79,4.86-35-1,11.67-13.6,16-11.42,36.69-.24,3.89-3.16,5.59-5.1,4.86,0,0,.12,0,.12.25-1.82-.12-3.89-1.83-4-5.11,2.19-20.53-10.57-25-11.54-36.57-7.66,19.08,4.13,25.76,4.86,35,1.58,4.62-1.34,6.32-4.62,4.26-3-2.31-1-14.7-3.52-20.41-3.65-5.72-11.42-10.33-13-20.3-7.66,14,3.64,22.6,7.65,32.81,3.28,6.44-1.09,9.6-3.64,5.71-1.83-4.13,0-10-6.56-17.62-3.16-4.13-9.12-8.14-12.4-18.1-3.76,13.12,1.95,20.29,7.66,25.88,4.49,6.92.36,9.35-2.92,6.32-2.55-2.31-1.33-9.36-5.71-15.68-3.64-4.25-10.08-5.83-12.15-15.55-4,11.06-1.82,15.92,6.44,21.87,8.75,7.53,1,8.38-2.06,6.44-2.8-2.67-.49-8.26-8.51-14.21-17.62-13.49-7-23.94-12.88-29-4.74-6-15.19-4.26-13.85,3.4,1.46,4,5.1,5.34,9.48,5.34.24,16.16,1.58,36.7,23.93,47,19.2,11.78,50.91,7.65,57.59,22Zm84.93-78.37a2.92,2.92,0,1,1-2.91,2.92,3,3,0,0,1,2.91-2.92Zm-169.49.12a2.92,2.92,0,1,1-2.92,2.92,3,3,0,0,1,2.92-2.92Zm84.81,52.12c-5.47-3.28-2.19-11.9-3.65-16,.12-8.75-7.05-12.64-8.87-20.17,5,2.79,9.48,4.61,12.52,8.5,3-3.89,7.53-5.71,12.51-8.5-1.34,8-9,11.9-8.87,20.17C181.76,316.51,185,325.13,179.58,328.41Z"/><path class="cls-3" d="M180.43,0c9.84,13.85,74.36,24.06,112.38,75.82,47.15,41.43,46.66,97.8,66.34,104.61-16.52,6.92-4.25,59.17-18.46,104.49-16.65,67.31-54.31,98.17-42.41,117-23.57-14.21-44.83,16.4-124.17,15.19-52.49,1.82-93.68-27-110.2-16,10.93-15.19-29.65-54.67-43-111.41C2.07,239.23,17.13,188.45,0,179.21,21.14,175,11.42,129,73.14,70,135.23,5.71,178.6,13.85,180.43,0Zm95.86,390.86a78.72,78.72,0,0,1,11.79-.72c2.3-14.95,12.51-30,19.44-43.38a281.6,281.6,0,0,0,25.27-63.91c5.34-19,7.29-37.66,7.77-57.35.85-13.73-.24-31.59,6.32-44l-.48-.49c-9.12-12.15-13.25-26.85-19.2-40.58-9.36-22.47-22.11-42.76-40.46-59.17C275.56,66.58,262.68,55,247.5,44.83a370.13,370.13,0,0,0-44.11-22.6c-6.68-3-15.92-6.19-21.75-10.57-7.9,4.74-17.13,7.54-25.88,10.7-16,6.07-30.74,14.82-44.83,24.9-30.86,24.55-60.14,53.58-77.15,89.79C27,151.63,23.21,169,12.64,181.28a66.87,66.87,0,0,1,3.28,10.57c2.79,24.18,1.82,48.84,6.44,72.78,2.06,10.93,6.19,22.23,9.11,33.17a268.45,268.45,0,0,0,21.14,48.11c7.65,14.46,17,28.55,21,44.59h2.43l3,.24c18.83,3,37.42,10.09,56,14.34,35.72,7.17,73.87,4.37,108.86-5C254.54,397.18,265.6,392.93,276.29,390.86Z"/><path class="cls-2" d="M104.13,168.88c-4.62-15.79-13.61-22.35-.37-32.92-2.06,10,2.8,19.68.37,32.92Zm1.94,18.23c-2.67-6.44,1.09-11.18-5.23-16-.36-11.42-7.53-15.55-6.31-20.65-8.14,7.89-4.62,19,3.28,23.08,1.82,6.32,2.43,12.64,8.26,13.61Zm-19.2-20.05c-8,13.85-2.43,20.66,9.84,23.45,6.2,4.74,8.51,13.85,13.49,14-2.07-6.8-4.86-12.63-9.23-17.73-1.58-8.63-10.33-14.34-14.1-19.69Zm-7,19.2c4.49,8.63,12.39,6.07,16,8.75,6.56,2.31,6.44,10.32,14.1,12.75,4.37,1.22,5,9.85,10.08,13.13-8.26,1.45-14.58-7.9-21.87-10.45-14.09-.73-24.18-9.36-18.34-24.18Zm-3.28,19.8c-3.89,13.85-.49,24.91,8,28.56,9.12,3.16,12.76-3.65,20.29-3.41,9-1.33,15.43,5,24.91,1.95A74.31,74.31,0,0,0,120,225c-9.6-1.46-13.61-8.39-21.38-11.3-9.72-1.7-13.25,1.46-22.11-7.66Zm2.18,35.6c15.92,7.54,17-4.25,23.09-6.07,5.22-1.58,10.32-1.1,16.4,1.46,6.44-2.07,14.7-4.13,25.39,3.28a65.82,65.82,0,0,1-21,7.17c-9.47,3.52-9.84,19.44-25.88,17.86-9.84.12-19.68-11.79-18-23.7Zm25,32c7,12.27,25.15,16.76,35.48,5.95,10.2-8.75,9.48-29.52,19.2-32.8-.13-1.34-.25-2.68-.37-4.13-4.62,2.79-9.72-1.83-14.34-.86-5.1,1.22-6.8,5.72-13.73,6.57-4.86.6-10.81,4.37-11.54,14-1.33,5.59-3.76,15.43-14.7,11.3Zm151.88-105.1c4.61-15.79,13.6-22.36.36-32.93,2.07,10-2.79,19.69-.36,32.93Zm-1.95,18.23c2.67-6.44-1.09-11.18,5.23-16,.36-11.42,7.53-15.55,6.31-20.66,8.14,7.9,4.62,19-3.28,23.09-1.82,6.32-2.43,12.63-8.26,13.61Zm19.2-20.05c8,13.85,2.43,20.65-9.84,23.45-6.2,4.74-8.51,13.85-13.49,14,2.07-6.8,4.86-12.64,9.23-17.74,1.58-8.63,10.33-14.34,14.1-19.68Zm7.05,19.19c-4.5,8.63-12.4,6.08-16,8.75-6.56,2.31-6.44,10.33-14.1,12.76-4.37,1.22-5,9.84-10.08,13.12,8.26,1.46,14.58-7.9,21.87-10.45,14.09-.73,24.18-9.35,18.35-24.18Zm3.28,19.81c3.88,13.85.48,24.91-8,28.55-9.12,3.16-12.76-3.64-20.29-3.4-9-1.34-15.43,5-24.91,1.94a74.31,74.31,0,0,1,9.72-8.14c9.6-1.45,13.61-8.38,21.38-11.3,9.72-1.7,13.25,1.46,22.12-7.65ZM281,241.3c-15.92,7.53-17-4.25-23.09-6.08-5.22-1.58-10.32-1.09-16.4,1.46-6.44-2.06-14.7-4.13-25.39,3.28a65.57,65.57,0,0,0,21,7.17c9.47,3.52,9.84,19.44,25.88,17.86,9.84.12,19.68-11.78,18-23.69Zm-25,31.95c-7.05,12.27-25.15,16.77-35.48,6-10.2-8.75-9.47-29.53-19.19-32.81.12-1.33.24-2.67.36-4.13,4.62,2.8,9.72-1.82,14.34-.85,5.1,1.22,6.8,5.71,13.73,6.56,4.86.61,10.81,4.38,11.54,14C242.64,267.54,245.07,277.38,256,273.25Z"/><path class="cls-4" d="M176.9,237.29h7.17c-1.21,10.21,3,10.81,4.38,13a19.56,19.56,0,0,1-1.83,9c-1.7,9,2.92,19.68-5.1,27a7.57,7.57,0,0,1-4-.36c-4.25-2.19-6.68-6.56-10.08-10.94-1.7-1.82-1-5.46,1.45-5.83,1.71,0,3,1.7,5.11,1.82-5.35-7.89-.37-10-1.1-15.3-2.91-2.68-.24-5.72-1.21-8.75,7.41-2.8,2.06-7.78,5.22-9.6Zm1.7,9.48c-1.57,5.83-1.21,12.75-.85,19.92-.12,3.16,1.95,5.23,1.34,9.6-1.58.37-2.79-2.55-4.13-2.92s-4.5.86-1.58,4.14c2.55,3.4,5.71,3.52,7.41,2.79,3-1.09.85-6.2,1.58-9.84-2.06-7.29-.24-15.8.24-23.45A5.17,5.17,0,0,0,178.6,246.77Z"/><path class="cls-4" d="M162.69,232.55c-1.95-3,.61-5.22,2.67-3.28,1.22,1.7,2.67,2.79,4.13,1.22,5.59-13.86,5.59-38.52,3.28-54-3.28-15.31-.85-33.17,6.81-49.33,6.56,16.52,8.14,29.89,4.13,51.15-4.86,22.6,4.74,42.28,10.81,57.59-18.59-5-26.61,3.65-31.83-3.4Zm17-93.31c-4.86,17.74-1.46,36.81-2.92,54.43-.12,14.82-1.09,27.82-4.37,37.18,4.86.24,9.84.36,14.46.49-4.38-12.15-6.08-23.33-6.81-40.59C179.46,176.54,185.53,160.62,179.7,139.24Z"/><path class="cls-5" d="M205.09,97.2c-7.65,4.13-12.39,4.74-21.26,6.07,36,23.33,56.13,40.71,32.08,88.21,7.77-9,13.48-11.17,29.16-13.48-15.19-10.09-19.2-19.93-.25-33.9-19.32-2.31-27.46-8.38-14-26.49C209,123,201.2,117.37,205.09,97.2Zm-50.3,0c7.66,4.13,12.39,4.74,21.26,6.07-36,23.33-56.13,40.71-32.07,88.21-7.78-9-13.49-11.17-29.16-13.48,15.18-10.09,19.19-19.93.24-33.9,19.32-2.31,27.46-8.38,14-26.49C150.9,123,158.68,117.37,154.79,97.2Z"/><path class="cls-3" d="M159.77,139.85c-4.61,4.25-8.62,5.71-11.9,10-5.11,7.17,3.4,16.52,9.35,17.86-1.94,3.77-4.37,10.33,2.07,12.15-1.7,7.05,2.79,11.18,6.56,12.15.36,1.58.48,2.79-.37,3.52-7.65,3.53-13.61,6.93-19.68,8-13.37.37-15.8,10-13.37,15.07,3.77,7,11.67,12.27,17.74,16,4,2.3,10.09,5.34,11.18-1-3.64-8.5,2-9.72,5-6.8,2.19.73,3.16-2.92,3.77-5.35,1.94-10.93,2.31-19.92,2.07-36.32-3.53-15.92-4.38-26.86-.61-38.76a37.49,37.49,0,0,0,1.21-9.12c-2.67-1.82-9.72-.48-13,2.56Zm41.31-1.1c4.74,4.38,8.26,10.94,11.54,16.28,7.78,12.52-9.35,19.69-12.75,23.7-.25,5.1,1.7,9.84-1.22,15.79,7.29,4.25,14.95,7.9,23.09,11.79,6.19,2.43,7.89,5.22,5,11.42a36.74,36.74,0,0,1-16.65,14.7c-7.29,3.64-14.46,1-17-6.44-2.91-11.54-9.35-20.78-8.14-40.82,4.5-14.83,3.4-26.86,2.43-39.37,0-2.79-1-5.83-1.09-8.87C188.93,135.11,198.9,137.29,201.08,138.75Z"/></g></g></svg>