<svg xmlns="http://www.w3.org/2000/svg" viewBox="0 0 1667.03 453.71"><defs><style>.cls-1,.cls-4{fill:#007336;}.cls-1,.cls-2{fill-rule:evenodd;}.cls-2,.cls-3{fill:#009e3b;}</style></defs><title>Asset 1</title><g id="Layer_2" data-name="Layer 2"><g id="Layer_1-2" data-name="Layer 1"><path class="cls-1" d="M294.69,56.71,196.46,0,98.23,56.71,0,113.43V340.28L98.23,397l98.23,56.72L294.69,397l98.23-56.71V113.43Zm79.47,170.14v102.6l-88.85,51.29L196.46,432l-88.85-51.3L18.76,329.45V124.26L107.61,73l88.85-51.29L285.31,73l88.85,51.3Z"/><path class="cls-2" d="M350,254.22V280H243.74V380.36H149.18V280H127.55L149.18,263h0l94.56-74.55v0l4.16-3.28L350,254.22Zm-115-31a21.61,21.61,0,1,0,14.72,37.41,21.61,21.61,0,1,0,0-31.61A21.48,21.48,0,0,0,235,223.22Z"/><path class="cls-1" d="M149.18,73.35h94.56V176.44l-11.42,9h0L156,245.59l-6.85,5.4-36.81,29H43V185.44H149.18V73.35ZM350,185.44v57.44L265,185.44Zm-100.28,71a18.77,18.77,0,0,1,0-23.19,18.73,18.73,0,0,1,0,23.19ZM235,226.09a18.74,18.74,0,1,0,12.86,32.36,21.46,21.46,0,0,1,0-27.25A18.65,18.65,0,0,0,235,226.09Zm29.44,0a18.67,18.67,0,0,0-12.86,5.11,21.46,21.46,0,0,1,0,27.25,18.74,18.74,0,1,0,12.86-32.36Z"/><path class="cls-3" d="M507.94,335.46l-25.4-31.1v31.1h-14v-69.8h14V297l25.4-31.3h16.9L496,300.26l29.6,35.2Z"/><path class="cls-3" d="M577.64,322.16h-27.8l-4.6,13.3h-14.7l25.1-69.9h16.3l25.1,69.9h-14.8Zm-3.8-11.2-10.1-29.2L553.64,311Z"/><path class="cls-3" d="M655.74,305.56a17.26,17.26,0,0,1,3.8,11,17.73,17.73,0,0,1-2.75,9.85,18.29,18.29,0,0,1-7.95,6.65,29.15,29.15,0,0,1-12.3,2.4h-30.1v-69.8h28.8a30,30,0,0,1,12.25,2.3,17.54,17.54,0,0,1,7.8,6.4,16.84,16.84,0,0,1,2.65,9.3,15.93,15.93,0,0,1-3.25,10.2,17.34,17.34,0,0,1-8.65,5.8A15.72,15.72,0,0,1,655.74,305.56Zm-35.3-11.1h12.8q5,0,7.7-2.25a7.92,7.92,0,0,0,2.7-6.45,8.08,8.08,0,0,0-2.7-6.5q-2.7-2.29-7.7-2.3h-12.8Zm22,27.2a8.39,8.39,0,0,0,2.85-6.8,8.76,8.76,0,0,0-3-7.05,12.1,12.1,0,0,0-8.1-2.55h-13.8v18.8h14.1Q639.64,324.06,642.49,321.66Z"/><path class="cls-3" d="M684.54,265.66v43.2q0,7.11,3.7,10.85t10.4,3.75q6.79,0,10.5-3.75t3.7-10.85v-43.2h14.1v43.1q0,8.91-3.85,15.05a24.39,24.39,0,0,1-10.3,9.25,32.67,32.67,0,0,1-14.35,3.1,31.77,31.77,0,0,1-14.15-3.1,23.48,23.48,0,0,1-10-9.25q-3.71-6.15-3.7-15.05v-43.1Z"/><path class="cls-3" d="M788.69,297.76a19.5,19.5,0,0,1-8.3,7.9q-5.65,3-14.25,3h-11.7v26.8h-14v-69.8h25.7a31.15,31.15,0,0,1,13.8,2.8,19.56,19.56,0,0,1,8.55,7.7,22.59,22.59,0,0,1,.2,21.6Zm-14.55-3.05a9.78,9.78,0,0,0,2.8-7.45q0-10.2-11.4-10.2h-11.1v20.3h11.1Q771.33,297.36,774.14,294.71Z"/><path class="cls-3" d="M844,322.16h-27.8l-4.6,13.3h-14.7l25.1-69.9h16.3l25.1,69.9h-14.8Zm-3.8-11.2-10.1-29.2L820,311Z"/><path class="cls-3" d="M920.34,265.66V277H901.73v58.5h-14V277h-18.6v-11.3Z"/><path class="cls-3" d="M944.53,277v17.5H968v11.1h-23.5v18.5H971v11.4h-40.5v-69.9H971V277Z"/><path class="cls-3" d="M1043.43,335.46h-14l-31.7-47.9v47.9h-14v-69.9h14l31.7,48v-48h14Z"/><path class="cls-3" d="M1092,333.66a21.51,21.51,0,0,1-9.25-7.2,18.94,18.94,0,0,1-3.5-11.1h15a9.69,9.69,0,0,0,3,6.8,10.78,10.78,0,0,0,7.55,2.5q4.9,0,7.7-2.35a7.61,7.61,0,0,0,2.8-6.15,7.11,7.11,0,0,0-1.9-5.1,13.34,13.34,0,0,0-4.75-3.15,81.63,81.63,0,0,0-7.85-2.55,83.59,83.59,0,0,1-11-3.95,19.29,19.29,0,0,1-7.3-5.9q-3-3.94-3-10.55a18.85,18.85,0,0,1,3.1-10.8,19.85,19.85,0,0,1,8.7-7.05,31.7,31.7,0,0,1,12.8-2.45q10.8,0,17.55,5.25t7.45,14.65h-15.4a8,8,0,0,0-3.05-5.95,11.52,11.52,0,0,0-7.55-2.35,9.72,9.72,0,0,0-6.55,2.1,7.61,7.61,0,0,0-2.45,6.1,6.31,6.31,0,0,0,1.85,4.65,13.9,13.9,0,0,0,4.6,3c1.83.77,4.42,1.65,7.75,2.65a83.13,83.13,0,0,1,11.1,4,20,20,0,0,1,7.4,6q3.11,4,3.1,10.5a19.76,19.76,0,0,1-2.9,10.4,20.41,20.41,0,0,1-8.5,7.65,29,29,0,0,1-13.3,2.85A33.08,33.08,0,0,1,1092,333.66Z"/><path class="cls-3" d="M1155.93,277v17.5h23.5v11.1h-23.5v18.5h26.5v11.4h-40.5v-69.9h40.5V277Z"/><path class="cls-3" d="M1271.23,265.66v69.8h-14v-45.4l-18.7,45.4h-10.6l-18.8-45.4v45.4h-14v-69.8H1211l22.2,51.9,22.2-51.9Z"/><path class="cls-3" d="M1327.83,322.16H1300l-4.6,13.3h-14.7l25.1-69.9h16.3l25.1,69.9h-14.8ZM1324,311l-10.1-29.2-10.1,29.2Z"/><path class="cls-3" d="M1392.63,335.46l-15.4-27.2h-6.6v27.2h-14v-69.8h26.2a30.59,30.59,0,0,1,13.8,2.85,19.93,19.93,0,0,1,8.55,7.7,21.69,21.69,0,0,1-1.15,23.3q-4,5.55-11.9,7.65l16.7,28.3Zm-22-37.7h11.7c3.8,0,6.63-.91,8.5-2.75a10.25,10.25,0,0,0,2.8-7.65,9.79,9.79,0,0,0-2.8-7.45c-1.87-1.76-4.7-2.65-8.5-2.65h-11.7Z"/><path class="cls-3" d="M1463.53,322.16h-27.8l-4.6,13.3h-14.7l25.1-69.9h16.3l25.1,69.9h-14.8Zm-3.8-11.2-10.1-29.2-10.1,29.2Z"/><path class="cls-3" d="M1552,335.46h-14l-31.7-47.9v47.9h-14v-69.9h14l31.7,48v-48h14Z"/><path class="cls-3" d="M1614.42,286.66a16.37,16.37,0,0,0-6.59-6.7,20.17,20.17,0,0,0-9.81-2.3,21.5,21.5,0,0,0-11,2.8,19.53,19.53,0,0,0-7.5,8,28.27,28.27,0,0,0,.06,24.2,19.41,19.41,0,0,0,7.64,8,22.57,22.57,0,0,0,11.41,2.8q8,0,13.09-4.25a20.18,20.18,0,0,0,6.7-11.85h-24v-10.7h37.8v12.2a32.67,32.67,0,0,1-6,13.5,33.74,33.74,0,0,1-11.84,9.95,34.86,34.86,0,0,1-16.25,3.75,36.7,36.7,0,0,1-18.25-4.55,33,33,0,0,1-12.8-12.65,38.75,38.75,0,0,1,0-36.85,33,33,0,0,1,12.8-12.7,39,39,0,0,1,38.64,1.2,29.3,29.3,0,0,1,12,16.15Z"/><path class="cls-4" d="M482.54,118.54v43.2q0,7.11,3.7,10.85t10.4,3.75q6.8,0,10.5-3.75t3.7-10.85v-43.2h14.1v43.1q0,8.91-3.85,15.05a24.39,24.39,0,0,1-10.3,9.25,32.64,32.64,0,0,1-14.35,3.1,31.77,31.77,0,0,1-14.15-3.1,23.6,23.6,0,0,1-10.05-9.25q-3.71-6.15-3.7-15.05v-43.1Z"/><path class="cls-4" d="M586.69,150.64a19.44,19.44,0,0,1-8.3,7.9q-5.65,3-14.25,3h-11.7v26.8h-14v-69.8h25.7a31.15,31.15,0,0,1,13.8,2.8,19.56,19.56,0,0,1,8.55,7.7,22.59,22.59,0,0,1,.2,21.6Zm-14.55-3c1.87-1.76,2.8-4.25,2.8-7.45q0-10.2-11.4-10.2h-11.1v20.3h11.1C567.41,150.24,570.27,149.36,572.14,147.59Z"/><path class="cls-4" d="M646.74,118.54v11.3h-18.6v58.5h-14v-58.5h-18.6v-11.3Z"/><path class="cls-4" d="M700.69,122.84a30.82,30.82,0,0,1,12.9,12.25,36.52,36.52,0,0,1,4.55,18.45,36,36,0,0,1-4.55,18.35A30.9,30.9,0,0,1,700.69,184a41.67,41.67,0,0,1-19.35,4.3h-24.4v-69.8h24.4A41.79,41.79,0,0,1,700.69,122.84Zm-2.85,47.6q6-6,6-16.9t-6-17q-6-6.15-17-6.15h-9.9v46.1h9.9Q691.83,176.44,697.84,170.44Z"/><path class="cls-4" d="M800.69,150.64a19.5,19.5,0,0,1-8.3,7.9q-5.65,3-14.25,3h-11.7v26.8h-14v-69.8h25.7a31.15,31.15,0,0,1,13.8,2.8,19.56,19.56,0,0,1,8.55,7.7,22.59,22.59,0,0,1,.2,21.6Zm-14.55-3a9.78,9.78,0,0,0,2.8-7.45q0-10.2-11.4-10.2h-11.1v20.3h11.1Q783.33,150.24,786.14,147.59Z"/><path class="cls-4" d="M827,118.54v43.2q0,7.11,3.7,10.85t10.39,3.75q6.81,0,10.5-3.75t3.71-10.85v-43.2h14.09v43.1q0,8.91-3.84,15.05a24.39,24.39,0,0,1-10.3,9.25,32.68,32.68,0,0,1-14.36,3.1,31.75,31.75,0,0,1-14.14-3.1,23.48,23.48,0,0,1-10-9.25q-3.71-6.15-3.7-15.05v-43.1Z"/><path class="cls-4" d="M893.88,186.54a21.51,21.51,0,0,1-9.25-7.2,19,19,0,0,1-3.5-11.1h15a9.69,9.69,0,0,0,3,6.8,10.8,10.8,0,0,0,7.55,2.5q4.9,0,7.7-2.35a7.61,7.61,0,0,0,2.8-6.15,7.11,7.11,0,0,0-1.9-5.1,13.34,13.34,0,0,0-4.75-3.15,81.63,81.63,0,0,0-7.85-2.55,84.12,84.12,0,0,1-11.05-4,19.37,19.37,0,0,1-7.3-5.9q-3-3.94-3-10.55a18.93,18.93,0,0,1,3.1-10.8,19.85,19.85,0,0,1,8.7-7.05,31.73,31.73,0,0,1,12.8-2.45q10.8,0,17.55,5.25t7.45,14.65h-15.4a8,8,0,0,0-3-5.95,11.52,11.52,0,0,0-7.55-2.35,9.74,9.74,0,0,0-6.55,2.1,7.61,7.61,0,0,0-2.45,6.1,6.31,6.31,0,0,0,1.85,4.65,14,14,0,0,0,4.6,3q2.76,1.15,7.75,2.65a82.11,82.11,0,0,1,11.1,4,20,20,0,0,1,7.4,6q3.11,4,3.1,10.5a19.67,19.67,0,0,1-2.9,10.4,20.41,20.41,0,0,1-8.5,7.65A29,29,0,0,1,907,189,33.12,33.12,0,0,1,893.88,186.54Z"/><path class="cls-4" d="M983.23,188.34l-25.4-31.1v31.1h-14v-69.8h14v31.3l25.4-31.3h16.9l-28.8,34.6,29.6,35.2Z"/><path class="cls-4" d="M1024.13,129.84v17.5h23.5v11.1h-23.5v18.5h26.5v11.4h-40.5v-69.9h40.5v11.4Z"/><path class="cls-4" d="M1074.28,186.54a21.51,21.51,0,0,1-9.25-7.2,19,19,0,0,1-3.5-11.1h15a9.69,9.69,0,0,0,3,6.8,10.8,10.8,0,0,0,7.55,2.5q4.9,0,7.7-2.35a7.61,7.61,0,0,0,2.8-6.15,7.11,7.11,0,0,0-1.9-5.1,13.34,13.34,0,0,0-4.75-3.15,81.63,81.63,0,0,0-7.85-2.55,84.12,84.12,0,0,1-11.05-4,19.37,19.37,0,0,1-7.3-5.9q-3-3.94-3-10.55a18.93,18.93,0,0,1,3.1-10.8,19.85,19.85,0,0,1,8.7-7.05,31.73,31.73,0,0,1,12.8-2.45q10.8,0,17.55,5.25t7.45,14.65h-15.4a8,8,0,0,0-3-5.95,11.52,11.52,0,0,0-7.55-2.35,9.74,9.74,0,0,0-6.55,2.1,7.61,7.61,0,0,0-2.45,6.1,6.31,6.31,0,0,0,1.85,4.65,14,14,0,0,0,4.6,3q2.76,1.15,7.75,2.65a82.11,82.11,0,0,1,11.1,4,20,20,0,0,1,7.4,6q3.1,4,3.1,10.5a19.67,19.67,0,0,1-2.9,10.4,20.41,20.41,0,0,1-8.5,7.65,29,29,0,0,1-13.3,2.85A33.12,33.12,0,0,1,1074.28,186.54Z"/><path class="cls-4" d="M1200.33,118.54v69.8h-14v-45.4l-18.7,45.4H1157l-18.8-45.4v45.4h-14v-69.8h15.9l22.2,51.9,22.2-51.9Z"/><path class="cls-4" d="M1256.93,175h-27.8l-4.6,13.3h-14.7l25.1-69.9h16.3l25.1,69.9h-14.8Zm-3.8-11.2-10.1-29.2-10.1,29.2Z"/><path class="cls-4" d="M1296.68,186.54a21.51,21.51,0,0,1-9.25-7.2,18.94,18.94,0,0,1-3.5-11.1h15a9.69,9.69,0,0,0,3,6.8,10.78,10.78,0,0,0,7.55,2.5c3.27,0,5.83-.78,7.7-2.35A7.61,7.61,0,0,0,1320,169a7.11,7.11,0,0,0-1.9-5.1,13.43,13.43,0,0,0-4.75-3.15q-2.85-1.14-7.85-2.55a83.59,83.59,0,0,1-11-4,19.29,19.29,0,0,1-7.3-5.9q-3-3.94-3-10.55a18.85,18.85,0,0,1,3.1-10.8,19.85,19.85,0,0,1,8.7-7.05,31.7,31.7,0,0,1,12.8-2.45q10.8,0,17.55,5.25t7.45,14.65h-15.4a8,8,0,0,0-3-5.95,11.53,11.53,0,0,0-7.55-2.35,9.72,9.72,0,0,0-6.55,2.1,7.61,7.61,0,0,0-2.45,6.1,6.31,6.31,0,0,0,1.85,4.65,13.9,13.9,0,0,0,4.6,3c1.83.77,4.42,1.65,7.75,2.65a83.13,83.13,0,0,1,11.1,4,20.07,20.07,0,0,1,7.4,6q3.1,4,3.1,10.5a19.76,19.76,0,0,1-2.9,10.4,20.47,20.47,0,0,1-8.5,7.65,29,29,0,0,1-13.3,2.85A33.08,33.08,0,0,1,1296.68,186.54Z"/><path class="cls-4" d="M1411.13,118.54v49q0,10.2-5.9,15.85t-15.8,5.65q-10,0-16.15-5.8t-6.15-16.2h14a11.08,11.08,0,0,0,2.15,7,7.23,7.23,0,0,0,6,2.5,7.13,7.13,0,0,0,5.8-2.4,10,10,0,0,0,2-6.6v-49Z"/><path class="cls-4" d="M1441.43,129.84v17.5h23.5v11.1h-23.5v18.5h26.5v11.4h-40.5v-69.9h40.5v11.4Z"/><path class="cls-4" d="M1528.13,118.54v11.3h-18.6v58.5h-14v-58.5h-18.6v-11.3Z"/><path class="cls-4" d="M1581.13,175h-27.8l-4.6,13.3H1534l25.1-69.9h16.3l25.1,69.9h-14.8Zm-3.8-11.2-10.1-29.2-10.1,29.2Z"/><path class="cls-4" d="M1649.33,188.34l-25.4-31.1v31.1h-14v-69.8h14v31.3l25.4-31.3h16.9l-28.8,34.6,29.6,35.2Z"/></g></g></svg>