<svg xmlns="http://www.w3.org/2000/svg" viewBox="0 0 879.73 148.08"><defs><style>.cls-1,.cls-3{fill:#fff;}.cls-2,.cls-5{fill:#231f20;}.cls-2{stroke:#231f20;stroke-miterlimit:22.93;stroke-width:0.15px;}.cls-2,.cls-3,.cls-4,.cls-5,.cls-6{fill-rule:evenodd;}.cls-4,.cls-7{fill:#b98458;}.cls-6{fill:#d44530;}.cls-8{fill:#6b3990;}</style></defs><title>Asset 10</title><g id="Layer_2" data-name="Layer 2"><g id="Layer_1-2" data-name="Layer 1"><path class="cls-1" d="M159.06,48a14.75,14.75,0,0,1-7.27-1.58,9.3,9.3,0,0,1-4.1-4.76,20.89,20.89,0,0,1-1.3-7.92V21.9a8.77,8.77,0,0,0-.55-3.41,2.63,2.63,0,0,0-2.57-1.39h-.62V15.85h4.84a5.4,5.4,0,0,1,2.62.53,3,3,0,0,1,1.32,1.82,14,14,0,0,1,.38,3.7l.05,13.29a14.53,14.53,0,0,0,1.92,7.9C155,45,157,46,159.83,46a10.44,10.44,0,0,0,5.54-1.3,7.42,7.42,0,0,0,3-4,21,21,0,0,0,1-6.92V15.85h2.21v17.9a23.09,23.09,0,0,1-1.15,7.78,9.09,9.09,0,0,1-3.87,4.82A14.35,14.35,0,0,1,159.06,48Z"/><path class="cls-1" d="M203.88,47.82,183.43,23.19V47.53h-2.21V21.61a5.56,5.56,0,0,0-.89-3.24c-.59-.85-1.73-1.27-3.43-1.27h-.34V15.85h3.27a10.17,10.17,0,0,1,4.2.74,7.44,7.44,0,0,1,2.71,2.14L203.4,38.6V15.85h2.2v32Z"/><path class="cls-1" d="M218.93,47.53a5.63,5.63,0,0,1-2.61-.5A2.82,2.82,0,0,1,215,45.2a13.78,13.78,0,0,1-.39-3.72V15.85h5.47V41.48a8.5,8.5,0,0,0,.6,3.48q.6,1.32,2.76,1.32h.68v1.25Z"/><path class="cls-1" d="M240.75,48,229.57,21.47a12.84,12.84,0,0,0-2.21-3.77,4.37,4.37,0,0,0-2.73-1.27v-1l.84-.05c.43,0,.76-.05,1-.05a14.22,14.22,0,0,1,3.14.38,7.88,7.88,0,0,1,3.22,1.68,10.43,10.43,0,0,1,2.71,4L243.35,40l10.32-24.14H256L242.24,48Z"/><path class="cls-1" d="M262.77,47.53V21.9a8.5,8.5,0,0,0-.6-3.48q-.6-1.32-2.76-1.32h-.72V15.85h20.88a4.81,4.81,0,0,1,2.54.55,2.88,2.88,0,0,1,1.2,1.44,5.06,5.06,0,0,1,.34,1.85v3.89H282.4a5.41,5.41,0,0,0-1.56-4.32,6.58,6.58,0,0,0-4.44-1.35h-8.21v12.2h12.68v2.06H268.19v13.3h8.31a8.74,8.74,0,0,0,4.75-1.18,8.36,8.36,0,0,0,3.07-4.2l1.15.38-1.53,4.08a4.84,4.84,0,0,1-1.3,2.19,3.77,3.77,0,0,1-2.64.79Z"/><path class="cls-1" d="M314.4,48a7.25,7.25,0,0,1-3.09-.67,9.34,9.34,0,0,1-2.88-2.19,24.4,24.4,0,0,1-3-4.1L300.62,33h-2.49V47.53h-5.47V21.9a8.5,8.5,0,0,0-.6-3.48q-.6-1.32-2.76-1.32h-.72V15.85h13c.83,0,1.8.06,2.9.17a17.34,17.34,0,0,1,3.34.67,12,12,0,0,1,3.12,1.46,7.65,7.65,0,0,1,2.33,2.5,7.6,7.6,0,0,1,.88,3.84A7.21,7.21,0,0,1,313,28.76,7.75,7.75,0,0,1,310,31.28a17.43,17.43,0,0,1-3.69,1.37l5,8.4a13.33,13.33,0,0,0,3.33,4.13,6.84,6.84,0,0,0,2.86,1.25v1.1a5,5,0,0,1-1.3.34A12.76,12.76,0,0,1,314.4,48ZM298.13,31.16h3.12a8,8,0,0,0,2.3-.36,7.37,7.37,0,0,0,2.26-1.13,5.59,5.59,0,0,0,1.7-2.06,7,7,0,0,0,.65-3.17,7.08,7.08,0,0,0-.65-3.17,5.8,5.8,0,0,0-1.68-2.08A6.89,6.89,0,0,0,303.6,18a8,8,0,0,0-2.3-.36c-.36,0-.82,0-1.4.1s-1.16.16-1.77.29Z"/><path class="cls-1" d="M331.57,48.35a19.52,19.52,0,0,1-3.89-.39,14.91,14.91,0,0,1-3.53-1.15A7.63,7.63,0,0,1,321.61,45a3.58,3.58,0,0,1-.94-2.42V37.11h1.15q.78,4.95,3.12,7.06a9.21,9.21,0,0,0,6.39,2.11,8.75,8.75,0,0,0,3.17-.53,4.7,4.7,0,0,0,2.18-1.6,4.29,4.29,0,0,0,.79-2.62,4.93,4.93,0,0,0-1.32-3.48,18.3,18.3,0,0,0-3.72-2.9l-5.9-3.51A13.48,13.48,0,0,1,322,27.8a8.06,8.06,0,0,1-1.32-4.61,7.26,7.26,0,0,1,2.79-6,11.55,11.55,0,0,1,7.39-2.2,19.26,19.26,0,0,1,3.79.38,14.85,14.85,0,0,1,3.43,1.13,7.93,7.93,0,0,1,2.5,1.8,3.6,3.6,0,0,1,.94,2.45v5.42h-1.16c-.54-3.29-1.57-5.64-3.09-7a8.66,8.66,0,0,0-6.07-2.09,6.89,6.89,0,0,0-2.88.58,4.64,4.64,0,0,0-2,1.63,4.39,4.39,0,0,0-.72,2.54,4.32,4.32,0,0,0,1.37,3.31,20.08,20.08,0,0,0,3.76,2.69l5.91,3.51A17.79,17.79,0,0,1,341.27,35a6.74,6.74,0,0,1,1.48,4.44A8,8,0,0,1,339.8,46Q336.85,48.35,331.57,48.35Z"/><path class="cls-1" d="M354.26,47.53a5.67,5.67,0,0,1-2.62-.5,2.89,2.89,0,0,1-1.32-1.83,13.84,13.84,0,0,1-.38-3.72V15.85h5.47V41.48A8.5,8.5,0,0,0,356,45q.6,1.32,2.76,1.32h.67v1.25Z"/><path class="cls-1" d="M373,47.53V17.91h-3.79a6.24,6.24,0,0,0-4.2,1.3c-1,.86-1.52,2.32-1.52,4.37h-1.24V19.69a5.27,5.27,0,0,1,.33-1.85,2.9,2.9,0,0,1,1.23-1.44,4.86,4.86,0,0,1,2.52-.55h22.46v2.06H378.38V47.53Z"/><path class="cls-1" d="M417,47.72a12.4,12.4,0,0,1-3.05-.41,7.87,7.87,0,0,1-3.22-1.72,10.13,10.13,0,0,1-2.66-4.11l-1.15-2.83H393.87L390,47.53h-2.35L401.5,15.85h1.83L414,41.48A10.54,10.54,0,0,0,416.17,45a4.71,4.71,0,0,0,2.95,1.37v1.1a7.68,7.68,0,0,1-1,.17A9,9,0,0,1,417,47.72ZM394.78,36.59H406l-5.48-13.11Z"/><path class="cls-1" d="M432.35,48.35a19.52,19.52,0,0,1-3.89-.39,14.76,14.76,0,0,1-3.53-1.15A7.63,7.63,0,0,1,422.39,45a3.58,3.58,0,0,1-.94-2.42V37.11h1.15q.78,4.95,3.12,7.06a9.21,9.21,0,0,0,6.39,2.11,8.75,8.75,0,0,0,3.17-.53,4.7,4.7,0,0,0,2.18-1.6,4.29,4.29,0,0,0,.79-2.62,4.93,4.93,0,0,0-1.32-3.48,18.3,18.3,0,0,0-3.72-2.9l-5.9-3.51a13.48,13.48,0,0,1-4.54-3.84,8.06,8.06,0,0,1-1.32-4.61,7.26,7.26,0,0,1,2.79-6,11.55,11.55,0,0,1,7.39-2.2,19.26,19.26,0,0,1,3.79.38,14.85,14.85,0,0,1,3.43,1.13,7.93,7.93,0,0,1,2.5,1.8,3.59,3.59,0,0,1,.93,2.45v5.42h-1.15c-.54-3.29-1.57-5.64-3.09-7A8.67,8.67,0,0,0,432,17.05a7,7,0,0,0-2.88.58,4.66,4.66,0,0,0-2,1.63,4.39,4.39,0,0,0-.72,2.54,4.32,4.32,0,0,0,1.37,3.31,20.08,20.08,0,0,0,3.76,2.69l5.91,3.51A17.55,17.55,0,0,1,442,35a6.7,6.7,0,0,1,1.49,4.44A8,8,0,0,1,440.58,46Q437.63,48.35,432.35,48.35Z"/><path class="cls-1" d="M146.63,95.53V69.9a8.5,8.5,0,0,0-.6-3.48q-.6-1.32-2.76-1.32h-.72V63.85h12.86q9.75,0,14.59,4.2t4.85,11.45a16.6,16.6,0,0,1-2.06,8.33,14.2,14.2,0,0,1-6.12,5.66,22.15,22.15,0,0,1-10,2Zm9.89-1.82A11.19,11.19,0,0,0,162.66,92a11.74,11.74,0,0,0,4.25-4.85,16.59,16.59,0,0,0,1.56-7.46,16.56,16.56,0,0,0-1.54-7.37,11.93,11.93,0,0,0-4.24-4.89,11.3,11.3,0,0,0-6.27-1.76c-.7,0-1.37,0-2,.1a19.92,19.92,0,0,0-2.33.43V93.27c.7.13,1.29.23,1.75.29a10.78,10.78,0,0,0,1.32.12Q155.8,93.71,156.52,93.71Z"/><path class="cls-1" d="M184.74,95.53a5.7,5.7,0,0,1-2.62-.5,2.89,2.89,0,0,1-1.32-1.83,14.27,14.27,0,0,1-.38-3.72V63.85h5.47V89.48a8.5,8.5,0,0,0,.6,3.48q.6,1.32,2.76,1.32h.67v1.25Z"/><path class="cls-1" d="M195.15,95.53V69.9a8.68,8.68,0,0,0-.59-3.48q-.62-1.32-2.76-1.32h-.73V63.85H204c.86,0,1.84.06,2.92.17a16.78,16.78,0,0,1,3.32.69,11,11,0,0,1,3.12,1.59,7.8,7.8,0,0,1,2.33,2.81,9.7,9.7,0,0,1,.88,4.39,8.86,8.86,0,0,1-.86,4.1,7.58,7.58,0,0,1-2.26,2.67,11.24,11.24,0,0,1-2.9,1.53,13.37,13.37,0,0,1-2.88.7,19.63,19.63,0,0,1-2.23.17h-4.85V95.53Zm5.43-14.69h3.17a8.14,8.14,0,0,0,2.35-.36,6,6,0,0,0,2.23-1.25A6.27,6.27,0,0,0,210,76.88a9.33,9.33,0,0,0,.62-3.62,9.49,9.49,0,0,0-.62-3.67,6,6,0,0,0-1.66-2.33A6.37,6.37,0,0,0,206.15,66a7.56,7.56,0,0,0-2.26-.36,14.48,14.48,0,0,0-1.51.1c-.56.07-1.16.16-1.8.29Z"/><path class="cls-1" d="M234.66,96.49a14.72,14.72,0,0,1-8.14-2.23,14.93,14.93,0,0,1-5.37-6,20.14,20.14,0,0,1,0-17.08,14.93,14.93,0,0,1,5.37-6,16,16,0,0,1,16.3,0,15.22,15.22,0,0,1,5.37,6,20,20,0,0,1,0,17.08,15.22,15.22,0,0,1-5.37,6A14.72,14.72,0,0,1,234.66,96.49Zm0-2.06a7.83,7.83,0,0,0,5.18-1.76,10.89,10.89,0,0,0,3.24-5.06,24.74,24.74,0,0,0,1.13-7.92,24.65,24.65,0,0,0-1.13-7.94,11,11,0,0,0-3.24-5,8.4,8.4,0,0,0-10.29,0,10.86,10.86,0,0,0-3.27,5,24.65,24.65,0,0,0-1.13,7.94,24.74,24.74,0,0,0,1.13,7.92,10.78,10.78,0,0,0,3.27,5.06A7.78,7.78,0,0,0,234.66,94.43Z"/><path class="cls-1" d="M279.06,95.82,258.61,71.19V95.53H256.4V69.61a5.56,5.56,0,0,0-.89-3.24c-.59-.85-1.73-1.27-3.43-1.27h-.33V63.85H255a10.17,10.17,0,0,1,4.2.74,7.35,7.35,0,0,1,2.71,2.14L278.58,86.6V63.85h2.21v32Z"/><path class="cls-1" d="M289,95.53V69.9a8.5,8.5,0,0,0-.6-3.48q-.6-1.32-2.76-1.32H285V63.85h20.88a4.88,4.88,0,0,1,2.55.55,3,3,0,0,1,1.2,1.44,5.27,5.27,0,0,1,.33,1.85v3.89h-1.25a5.41,5.41,0,0,0-1.56-4.32,6.58,6.58,0,0,0-4.44-1.35h-8.2v12.2h12.67v2.06H294.47v13.3h8.3a8.74,8.74,0,0,0,4.75-1.18,8.36,8.36,0,0,0,3.07-4.2l1.16.38-1.54,4.08a4.84,4.84,0,0,1-1.3,2.19,3.77,3.77,0,0,1-2.64.79Z"/><path class="cls-1" d="M331.28,96.49a17,17,0,0,1-6.74-1.32,15.91,15.91,0,0,1-5.35-3.67,16.69,16.69,0,0,1-3.51-5.5,18.26,18.26,0,0,1-1.25-6.79,18,18,0,0,1,1.9-8.3,14.55,14.55,0,0,1,5.38-5.86,15.1,15.1,0,0,1,8.13-2.16A20.14,20.14,0,0,1,337.21,64a10.59,10.59,0,0,1,4.25,2.74,5.4,5.4,0,0,1,1.05,3c.1,1.26.15,2.44.15,3.52h-1.25A10.91,10.91,0,0,0,338,67a10.36,10.36,0,0,0-6.75-2,10,10,0,0,0-5,1.18,9.64,9.64,0,0,0-3.38,3.22,14.94,14.94,0,0,0-2,4.58,22.44,22.44,0,0,0-.62,5.28,23,23,0,0,0,1.49,9.17,9.76,9.76,0,0,0,4,4.77,10.83,10.83,0,0,0,5.47,1.42,17.7,17.7,0,0,0,4-.38,13.7,13.7,0,0,0,2.95-1.06V84.68a7.72,7.72,0,0,1,.27-2,3.81,3.81,0,0,1,1.17-1.85,6.8,6.8,0,0,1,2.64-1.37,16.62,16.62,0,0,1,4.66-.53V80a2.78,2.78,0,0,0-2.62,1.2,6.79,6.79,0,0,0-.69,3.36v8.78a20.39,20.39,0,0,1-5.69,2.38A28,28,0,0,1,331.28,96.49Z"/><path class="cls-1" d="M364.59,96.49a14.71,14.71,0,0,1-8.13-2.23,15,15,0,0,1-5.38-6,20.24,20.24,0,0,1,0-17.08,15,15,0,0,1,5.38-6,16,16,0,0,1,16.29,0,15.17,15.17,0,0,1,5.38,6,20,20,0,0,1,0,17.08,15.17,15.17,0,0,1-5.38,6A14.67,14.67,0,0,1,364.59,96.49Zm0-2.06a7.86,7.86,0,0,0,5.19-1.76A10.89,10.89,0,0,0,373,87.61a24.75,24.75,0,0,0,1.12-7.92A24.67,24.67,0,0,0,373,71.75a11,11,0,0,0-3.24-5,8.41,8.41,0,0,0-10.3,0,10.93,10.93,0,0,0-3.26,5,24.65,24.65,0,0,0-1.13,7.94,24.74,24.74,0,0,0,1.13,7.92,10.84,10.84,0,0,0,3.26,5.06A7.79,7.79,0,0,0,364.59,94.43Z"/><path class="cls-1" d="M407.94,96a7.33,7.33,0,0,1-3.1-.67A9.34,9.34,0,0,1,402,93.15a25.56,25.56,0,0,1-3-4.1L394.16,81h-2.49V95.53h-5.48V69.9a8.5,8.5,0,0,0-.6-3.48q-.6-1.32-2.76-1.32h-.72V63.85h13c.83,0,1.8.06,2.91.17a17.4,17.4,0,0,1,3.33.67,12,12,0,0,1,3.12,1.46,7.12,7.12,0,0,1,3.22,6.34,7.21,7.21,0,0,1-1.15,4.27,7.82,7.82,0,0,1-2.93,2.52,17.51,17.51,0,0,1-3.7,1.37l5,8.4a13.47,13.47,0,0,0,3.34,4.13,6.86,6.86,0,0,0,2.85,1.25v1.1a4.76,4.76,0,0,1-1.29.34A12.76,12.76,0,0,1,407.94,96ZM391.67,79.16h3.11a8,8,0,0,0,2.31-.36,7.37,7.37,0,0,0,2.26-1.13,5.59,5.59,0,0,0,1.7-2.06,8.05,8.05,0,0,0,0-6.34,5.8,5.8,0,0,0-1.68-2.08A6.89,6.89,0,0,0,397.14,66a8,8,0,0,0-2.31-.36c-.35,0-.81,0-1.39.1s-1.17.16-1.77.29Z"/><path class="cls-1" d="M427.62,96.49a14.72,14.72,0,0,1-8.14-2.23,14.93,14.93,0,0,1-5.37-6,20.14,20.14,0,0,1,0-17.08,14.93,14.93,0,0,1,5.37-6,16,16,0,0,1,16.3,0,15.22,15.22,0,0,1,5.37,6,20,20,0,0,1,0,17.08,15.22,15.22,0,0,1-5.37,6A14.72,14.72,0,0,1,427.62,96.49Zm0-2.06a7.83,7.83,0,0,0,5.18-1.76A10.89,10.89,0,0,0,436,87.61a24.74,24.74,0,0,0,1.13-7.92A24.65,24.65,0,0,0,436,71.75a11,11,0,0,0-3.24-5,8.4,8.4,0,0,0-10.29,0,10.86,10.86,0,0,0-3.27,5,24.65,24.65,0,0,0-1.13,7.94,24.74,24.74,0,0,0,1.13,7.92,10.78,10.78,0,0,0,3.27,5.06A7.78,7.78,0,0,0,427.62,94.43Z"/><path class="cls-2" d="M4.17,65C14.44,37.74,32.93,17.76,60,9.12c24.88,7.78,43.19,27.09,54.54,56.57-1.34.94-1.37,3-1.71,5a14.24,14.24,0,0,0-.32,1.92c-.34,10.94-.43,28-8.28,41.42-3.83,6.55-5.18,14-9.21,19.86-22.82,7.92-46.31,9-70.74.12C10.76,112.13,4.31,89.08,4.17,65Z"/><path class="cls-3" d="M59.48,102.94c.4-1.84,5.13-2.84,7-5.65,2.76-5.53-.73-9.06,0-12.54,15.71-6.26,18.63-17.68,16.11-32.11-1.85-7.85-6-13.87-9.78-15.39-.12.48-.2.92-.28,1.36-3.21-4.89-12.07-7.89-13.07-10.74-1,2.85-10.14,5.85-13.35,10.74-.08-.44-.16-.88-.28-1.36-3.72,1.52-7.65,7.54-9.5,15.39C34,67.15,36.71,79,52.11,84.75c.56,4.17-3,7.69.24,12.78C55.35,100.9,58.8,101.26,59.48,102.94Z"/><path class="cls-3" d="M11.92,63.88,17,65.16a3.73,3.73,0,0,1,2.29,1.26,2.78,2.78,0,0,1,.21,2.31,2.85,2.85,0,0,1-1.24,1.92,3.28,3.28,0,0,1-2.4.12l-5.35-1.33.42-1.7L15.87,69a4.32,4.32,0,0,0,1.83.21,1,1,0,0,0,.59-.77.9.9,0,0,0-.21-.94,4.22,4.22,0,0,0-1.67-.67L11.5,65.57l.42-1.69Zm8.59.5.58-1.51-4.71-1.7c-.26-.1-.59-.21-1-.33l-1.35-.42c.6.07,1.15.12,1.65.16s.94.06,1.31.07l4.9.06.83-2.15-7.85-3-.58,1.52,4.56,1.64c.43.17.84.31,1.22.43s.75.23,1.1.32c-.47-.07-1-.12-1.47-.16s-1-.06-1.57-.06l-4.65-.07-.85,2.2,7.85,3Zm2.89-7.11-7.55-3.68L16.6,52l7.56,3.69-.76,1.54Zm2.08-4.08,1-1.81-6.3-6-.86,1.55,3.35,3c.3.27.64.55,1,.84s.76.59,1.19.89c-.29-.13-.63-.26-1-.4l-1.62-.53L18,49.35,17.09,51l8.39,2.23ZM28,48.82,21.15,44l2.61-3.72,1.06.74-1.59,2.27,1.64,1.15,1.46-2.08,1.06.74-1.46,2.08,2,1.41,1.65-2.35L30.7,45,28,48.82ZM26.65,36.57,25,38.45,31.35,44l1.16-1.33-2.62-2.28.49-.55a.89.89,0,0,1,.67-.38,1.49,1.49,0,0,1,.82.4l.5.43a7.77,7.77,0,0,0,1.34,1l1.2-1.38a4,4,0,0,1-.67-.36,9.58,9.58,0,0,1-.78-.61l-.16-.15-.15-.14a2.76,2.76,0,0,0-1.28-.75,1.62,1.62,0,0,0-1.08.42,1.4,1.4,0,0,0,.13-1.13A3,3,0,0,0,30,36a2.18,2.18,0,0,0-1.64-.69,3.33,3.33,0,0,0-1.73,1.28Zm2.26,2.93L27.15,38l.31-.35a1.43,1.43,0,0,1,.82-.58,1.23,1.23,0,0,1,.83.39,1.26,1.26,0,0,1,.52.82,1.37,1.37,0,0,1-.44.92l-.28.32Zm4.76-2.22L35,36l.16.16a1.51,1.51,0,0,0,.8.51.89.89,0,0,0,.72-.31.84.84,0,0,0,.29-.62.91.91,0,0,0-.3-.65c-.28-.29-.85-.35-1.73-.18l-.12,0-1.11.21c-.28,0-.5.06-.66.07a2.64,2.64,0,0,1-1-.14,2.33,2.33,0,0,1-.76-.54,2.13,2.13,0,0,1-.65-1.71,2.93,2.93,0,0,1,1-1.8,2.77,2.77,0,0,1,1.77-.9A2.27,2.27,0,0,1,35,31l.15.15-1.25,1.21,0,0a1.57,1.57,0,0,0-.77-.5.74.74,0,0,0-.67.24.84.84,0,0,0-.29.59.86.86,0,0,0,.28.62c.31.32,1,.36,2.12.1l.67-.15a3.87,3.87,0,0,1,1.52-.07,2,2,0,0,1,1,.6,2.34,2.34,0,0,1,.77,1.83,3.21,3.21,0,0,1-1.1,1.92,2.72,2.72,0,0,1-1.81.92,2.42,2.42,0,0,1-1.73-.9l-.09-.1-.1-.12Zm6.67-2.7,1.3-1.13-5.52-6.34-1.3,1.12,5.52,6.35Zm3.49-2.89,1.43-1.11L40.93,25l1.52-1.18-.85-1.09-4.45,3.48L38,27.33l1.51-1.17,4.32,5.53Zm2.9-6.08,1.51-1-2.71-2.58,1.2,3.56Zm3.88,1.26-1.4-1.33-2,1.33.64,1.81-1.48,1L43.74,21.3l1.88-1.22,6.54,5.78-1.55,1Zm.85-3.65a.5.5,0,0,1,.07.13l.07.13A2.45,2.45,0,0,0,53,24.8a2.74,2.74,0,0,0,2-.43,3.18,3.18,0,0,0,1.56-1.57,2.31,2.31,0,0,0-.27-2,2,2,0,0,0-.84-.85A3.78,3.78,0,0,0,54,19.66l-.68,0c-1.13,0-1.81-.25-2-.64a.86.86,0,0,1-.1-.67.82.82,0,0,1,.42-.5.73.73,0,0,1,.71-.05,1.55,1.55,0,0,1,.62.68l0,0,1.52-.85-.11-.19A2.2,2.2,0,0,0,53,16.25a2.68,2.68,0,0,0-1.94.41,2.84,2.84,0,0,0-1.39,1.49A2.11,2.11,0,0,0,49.81,20a2.21,2.21,0,0,0,.6.72,2.68,2.68,0,0,0,.94.39,4.77,4.77,0,0,0,.65.1l1.12.09h.13c.89.06,1.43.27,1.62.62a.93.93,0,0,1,.12.71.8.8,0,0,1-.44.52.86.86,0,0,1-.77.12,1.51,1.51,0,0,1-.64-.71L53,22.35Z"/><path class="cls-3" d="M67.31,17.67,64.58,22.8l.67.35a1.22,1.22,0,0,0,1.28.06,5.56,5.56,0,0,0,1.38-1.93,5.7,5.7,0,0,0,.83-2.23A1.24,1.24,0,0,0,68,18l-.67-.35Zm-1-2L68.78,17a2.59,2.59,0,0,1,1.58,1.9,5.88,5.88,0,0,1-1,3.2,5.89,5.89,0,0,1-2.11,2.58,2.6,2.6,0,0,1-2.45-.25l-2.45-1.31,3.94-7.42Zm2.2,10.91,4.33-7.21,1.47.89L70,27.49l-1.47-.88Zm10.08-3.46-2.29-1.66-4.94,6.8,1.48,1.08,2-2.73.81.59.08.06a4.27,4.27,0,0,0,1.09.63,1.47,1.47,0,0,0,.78,0,1.79,1.79,0,0,0,.83-.39,3.66,3.66,0,0,0,.8-.85,2.7,2.7,0,0,0,.7-1.92,2.93,2.93,0,0,0-1.33-1.66Zm-1.6.47.59.44a1.19,1.19,0,0,1,.57.72,1.36,1.36,0,0,1-.34.87,1.31,1.31,0,0,1-.77.61,1.48,1.48,0,0,1-1-.38l-.47-.35L77,23.62Zm1.5,10.46a3.7,3.7,0,0,1-.72-.83,2,2,0,0,1-.33-.85,2.47,2.47,0,0,1,.29-1.47,10.75,10.75,0,0,1,1.51-2.07A11.72,11.72,0,0,1,80.7,27.4a3.24,3.24,0,0,1,1.13-.61,2,2,0,0,1,1.14.05,3.45,3.45,0,0,1,1.2.71,3.8,3.8,0,0,1,.73.84,2.35,2.35,0,0,1,.33.87A2.43,2.43,0,0,1,85,30.64a9.7,9.7,0,0,1-1.35,1.88A14.31,14.31,0,0,1,82,34.18a3.18,3.18,0,0,1-1.15.62,2,2,0,0,1-1.15,0,3.17,3.17,0,0,1-1.18-.68Zm2-4a7.94,7.94,0,0,1,1.75-1.65.86.86,0,0,1,1,.12.84.84,0,0,1,.26,1,7.19,7.19,0,0,1-1.35,1.91,8.22,8.22,0,0,1-1.86,1.77.85.85,0,0,1-1-.13.84.84,0,0,1-.24-1,8.21,8.21,0,0,1,1.43-2Zm1.12,6.73L82.76,38l3.6-3.49.72-.72,1-1-.87,1.41c-.25.44-.46.82-.63,1.15l-2.2,4.38,1.57,1.68,6.15-5.73L91,34.44l-3.47,3.38c-.34.32-.65.62-.93.91s-.53.57-.77.85c.27-.39.54-.81.79-1.25s.51-.9.75-1.38l2.1-4.15-1.61-1.73L81.66,36.8Zm5.11,5.77,6.62-5.18L96.19,41l-1,.8-1.71-2.18-1.58,1.23,1.57,2-1,.8-1.57-2-1.93,1.51,1.77,2.26-1.07.84-2.86-3.66ZM97,49.6l-1.37-2.18-1.11.7.51.82-1.59,1a3.6,3.6,0,0,1-.34-.36,2.06,2.06,0,0,1-.23-.31,1.12,1.12,0,0,1-.13-1.21,6.84,6.84,0,0,1,2-1.62A7.82,7.82,0,0,1,97,45.3a.87.87,0,0,1,1,.44.87.87,0,0,1,.11.83,1.78,1.78,0,0,1-.76.77l-.09.06.92,1.46.1-.06a2.55,2.55,0,0,0,1.26-1.6,2.78,2.78,0,0,0-.5-2,3.81,3.81,0,0,0-1-1.1,1.94,1.94,0,0,0-1.1-.39,3.19,3.19,0,0,0-1.23.24,10.65,10.65,0,0,0-1.74.93,11.4,11.4,0,0,0-2.15,1.6,2.4,2.4,0,0,0-.7,1.3,2.07,2.07,0,0,0,.09,1,5.22,5.22,0,0,0,.57,1.18c.17.27.38.56.62.87s.56.68,1,1.1L97,49.6Zm-2,6a3.58,3.58,0,0,1-.36-1,2.12,2.12,0,0,1,0-.91,2.53,2.53,0,0,1,.83-1.25,10.21,10.21,0,0,1,2.17-1.36,11.08,11.08,0,0,1,1.88-.81,3.09,3.09,0,0,1,1.27-.14,2,2,0,0,1,1,.47,3.59,3.59,0,0,1,.84,1.1,3.8,3.8,0,0,1,.36,1.06,2.23,2.23,0,0,1,0,.93,2.44,2.44,0,0,1-.77,1.18,9.35,9.35,0,0,1-2,1.24,14.75,14.75,0,0,1-2.13.93,3.2,3.2,0,0,1-1.3.14,2,2,0,0,1-1-.46A3.32,3.32,0,0,1,95,55.63Zm3.38-3a7.53,7.53,0,0,1,2.25-.88.84.84,0,0,1,.9.5.82.82,0,0,1-.12,1,7.21,7.21,0,0,1-2,1.27,8.37,8.37,0,0,1-2.38,1,.87.87,0,0,1-.91-.51.84.84,0,0,1,.15-1,8.06,8.06,0,0,1,2.08-1.32Zm7.24,6-.89-2.33-7.85,3L97.5,61l3.23-1.24.27.68a.94.94,0,0,1,0,.77,1.46,1.46,0,0,1-.74.54l-.62.24a7.76,7.76,0,0,0-1.5.72l.65,1.71a3.94,3.94,0,0,1,.64-.42,7.12,7.12,0,0,1,.9-.41l.2-.07.2-.06a2.7,2.7,0,0,0,1.27-.78,1.59,1.59,0,0,0,.13-1.15,1.45,1.45,0,0,0,.94.65,2.94,2.94,0,0,0,1.45-.26,2.11,2.11,0,0,0,1.39-1.12,3.46,3.46,0,0,0-.32-2.13ZM102,59.3l2.16-.83.17.43a1.48,1.48,0,0,1,.13,1,1.24,1.24,0,0,1-.73.55,1.31,1.31,0,0,1-1,.08,1.42,1.42,0,0,1-.61-.83l-.15-.4Zm-2.12,8.9a3.79,3.79,0,0,1-.17-1.08,2.14,2.14,0,0,1,.17-.89,2.54,2.54,0,0,1,1-1.09,10.7,10.7,0,0,1,2.37-1,11.11,11.11,0,0,1,2-.47,3.09,3.09,0,0,1,1.28.08,1.94,1.94,0,0,1,.94.64,3.3,3.3,0,0,1,.64,1.24,3.66,3.66,0,0,1,.18,1.1,2.14,2.14,0,0,1-.18.91,2.35,2.35,0,0,1-1,1,9.16,9.16,0,0,1-2.13.88,14.56,14.56,0,0,1-2.26.55,3.25,3.25,0,0,1-1.31-.08,1.94,1.94,0,0,1-1-.65,3.25,3.25,0,0,1-.65-1.21Zm3.85-2.31a8,8,0,0,0-2.28.94.9.9,0,0,0,.48,1.62,8.23,8.23,0,0,0,2.51-.52,7.38,7.38,0,0,0,2.16-.9.84.84,0,0,0,.3-1,.87.87,0,0,0-.81-.65A7.83,7.83,0,0,0,103.69,65.89Z"/><path class="cls-3" d="M30.62,128.67l1.72.43-.05.21a1.45,1.45,0,0,0,0,.95.86.86,0,0,0,.64.44.83.83,0,0,0,.68-.08A.94.94,0,0,0,34,130c.09-.38-.16-.9-.76-1.55l-.09-.09c-.32-.34-.57-.62-.75-.83A5,5,0,0,1,32,127a2.69,2.69,0,0,1-.42-.92,2.17,2.17,0,0,1,.06-.93,2.09,2.09,0,0,1,1.1-1.45,2.79,2.79,0,0,1,2-.14,2.7,2.7,0,0,1,1.69,1,2.21,2.21,0,0,1,.2,1.82l-.06.21-1.67-.42v0a1.56,1.56,0,0,0,0-.91.75.75,0,0,0-.55-.45.84.84,0,0,0-.65.08.86.86,0,0,0-.38.56c-.11.43.24,1,1,1.84l.47.48a3.84,3.84,0,0,1,.87,1.25,2,2,0,0,1,0,1.18,2.26,2.26,0,0,1-1.13,1.61,3.1,3.1,0,0,1-2.2.09,2.79,2.79,0,0,1-1.74-1,2.48,2.48,0,0,1-.15-1.94l0-.13c0-.07,0-.11.05-.15Zm6.19,4.13,4.55.8.23-1.33-2.81-.49.42-2.41,2.5.45.22-1.27-2.5-.44.35-2,2.71.48.23-1.27-4.45-.78-1.45,8.23Zm6.1,1.22.87-8.31,2.68.28.64,5.22a5.73,5.73,0,0,1,.06.71c0,.28,0,.63,0,1,0-.28.11-.57.18-.86s.15-.57.24-.85l1.58-5,2.79.3-.88,8.31-1.62-.17.67-5.67c0-.43.1-.82.15-1.16s.1-.64.15-.92l-2.54,7.59-1.67-.18-1-8c0,.51,0,1.2-.11,2.06v0l-.49,5.69-1.7-.18ZM55,131.89l1.79,0L56,128.29l-1,3.6Zm2.5,3.19-.42-1.87-2.42,0L54.16,135l-1.76,0,2.51-8.31,2.22,0,2.18,8.4-1.83,0Zm5.33-8.32a3.33,3.33,0,0,1,2.1.39,2.1,2.1,0,0,1,.6,1.66,2.8,2.8,0,0,1-.23,1.45,1.41,1.41,0,0,1-.91.67,1.62,1.62,0,0,1,1,.5,2.7,2.7,0,0,1,.32,1.44v.42a6.44,6.44,0,0,0,.09,1A3.2,3.2,0,0,0,66,135l-1.82.06a7.61,7.61,0,0,1-.19-1.65c0-.28,0-.5,0-.65a1.44,1.44,0,0,0-.26-.87.86.86,0,0,0-.73-.23l-.73,0,.12,3.45-1.75.06-.29-8.36,2.48-.08Zm-.61,3.63.43,0a1.35,1.35,0,0,0,1-.3,1.22,1.22,0,0,0,.24-.94,1.17,1.17,0,0,0-.28-.86,1.45,1.45,0,0,0-1-.2h-.46l.08,2.31Zm6.92,1.2,1.78-.19-1.25-3.51-.53,3.7ZM72,134.45l-.64-1.8-2.41.25-.24,1.89-1.75.19,1.47-8.56,2.22-.23,3.18,8.07-1.83.19Zm3-.4,1.57-.28-.95-4.89c-.06-.27-.13-.61-.22-1s-.2-.84-.34-1.35c.25.54.49,1,.71,1.48s.43.83.61,1.15l2.47,4.21,2.25-.4-1.45-8.23-1.59.28.94,4.73c.08.45.16.87.25,1.26s.19.76.3,1.1c-.19-.44-.39-.88-.62-1.33s-.47-.91-.75-1.37l-2.33-4-2.31.41L75,134.05ZM87.36,127l1,4.13c-.52.23-1,.41-1.34.54a9.26,9.26,0,0,1-1,.3,5.43,5.43,0,0,1-1.29.15,2.21,2.21,0,0,1-.94-.22,2.51,2.51,0,0,1-1-1.08,11.66,11.66,0,0,1-.81-2.54,11.21,11.21,0,0,1-.31-1.94,3.16,3.16,0,0,1,.17-1.24,1.92,1.92,0,0,1,.73-.9,3.68,3.68,0,0,1,1.34-.56,2.74,2.74,0,0,1,2.08.19,2.51,2.51,0,0,1,1.1,1.7l0,.12-1.68.39,0-.1a1.83,1.83,0,0,0-.48-1,.87.87,0,0,0-.81-.17.88.88,0,0,0-.73.76,8,8,0,0,0,.33,2.49,6.67,6.67,0,0,0,.86,2.45,1.13,1.13,0,0,0,1.18.27l.37-.12a2.73,2.73,0,0,0,.45-.2l-.42-1.82-.94.22-.29-1.28Z"/><path class="cls-3" d="M59.16,122.18c2.25-4.73,12.79-3.4,19.12-7.25,7.37-3.45,7.86-10.18,7.94-15.55,1.44,0,2.64-.4,3.12-1.77.4-2.48-3-3-4.57-1.12-1.92,1.68,1.53,5.13-4.25,9.62-2.64,1.92-1.92,3.77-2.8,4.65-1,.64-3.61.4-.72-2.08,2.72-2,3.44-3.61,2.16-7.22-.72,3.21-2.8,3.69-4,5.13-1.44,2.09-1,4.41-1.92,5.13-1,1-2.41.24-1-2.08,1.92-1.85,3.77-4.17,2.56-8.5-1.12,3.29-3,4.57-4.09,5.93-2.16,2.57-1.6,4.49-2.16,5.85-.88,1.29-2.32.24-1.2-1.92,1.28-3.37,5.05-6.17,2.48-10.82-.48,3.29-3,4.81-4.25,6.73-.88,1.85-.16,5.93-1.2,6.74-1,.64-2,.08-1.52-1.45.24-3,4.17-5.21,1.6-11.54-.32,3.85-4.49,5.29-3.77,12.1-.08,1.29-1,1.85-1.68,1.61,0,0,0,0,0,.08a1.58,1.58,0,0,1-1.32-1.69c.72-6.77-3.49-8.25-3.81-12.06-2.52,6.29,1.36,8.5,1.6,11.54.52,1.53-.44,2.09-1.52,1.41s-.32-4.85-1.16-6.74c-1.2-1.88-3.77-3.4-4.29-6.69-2.53,4.61,1.2,7.45,2.52,10.82,1.09,2.12-.36,3.17-1.2,1.88-.6-1.36,0-3.28-2.16-5.81-1-1.36-3-2.68-4.09-6-1.24,4.33.64,6.69,2.52,8.54,1.49,2.28.12,3.08-1,2.08-.84-.76-.44-3.08-1.88-5.17-1.2-1.4-3.33-1.92-4-5.13-1.32,3.65-.6,5.25,2.12,7.22,2.89,2.48.33,2.76-.68,2.12-.92-.88-.16-2.73-2.8-4.69-5.81-4.45-2.33-7.9-4.25-9.58-1.56-2-5-1.4-4.57,1.12.48,1.33,1.68,1.77,3.13,1.77.08,5.33.52,12.1,7.89,15.51,6.33,3.89,16.8,2.52,19,7.25Zm28-25.85a1,1,0,1,1-1,1,1,1,0,0,1,1-1Zm-55.92,0a1,1,0,1,1-1,1,1,1,0,0,1,1-1Zm28,17.2c-1.8-1.09-.72-3.93-1.2-5.3,0-2.88-2.33-4.16-2.93-6.65,1.65.92,3.13,1.52,4.13,2.81,1-1.29,2.49-1.89,4.13-2.81-.44,2.65-3,3.93-2.93,6.65C60,109.64,61,112.48,59.24,113.57Z"/><path class="cls-4" d="M59.52,5.22c3.25,4.57,24.53,7.94,37.08,25C112.15,43.9,112,62.5,118.48,64.75c-5.45,2.28-1.4,19.52-6.09,34.47-5.49,22.2-17.92,32.38-14,38.6-7.77-4.69-14.79,5.41-41,5-17.32.6-30.91-8.9-36.36-5.3,3.61-5-9.78-18-14.19-36.75C.68,84.15,5.65,67.39,0,64.35c7-1.41,3.77-16.56,24.13-36C44.61,7.11,58.92,9.79,59.52,5.22Zm31.63,129a25.59,25.59,0,0,1,3.88-.24c.77-4.93,4.13-9.9,6.42-14.31a93.12,93.12,0,0,0,8.33-21.08,75,75,0,0,0,2.57-18.92c.28-4.53-.08-10.42,2.08-14.51l-.16-.16c-3-4-4.37-8.86-6.33-13.39A52.65,52.65,0,0,0,94.59,32,52.67,52.67,0,0,0,81.65,20,121.53,121.53,0,0,0,67.1,12.56c-2.21-1-5.25-2-7.18-3.49a47.51,47.51,0,0,1-8.54,3.53,65,65,0,0,0-14.79,8.22C26.41,28.91,16.75,38.49,11.14,50.44,8.9,55.25,7.66,61,4.17,65a21.85,21.85,0,0,1,1.08,3.48c.92,8,.6,16.12,2.13,24,.68,3.61,2,7.34,3,11a88.23,88.23,0,0,0,7,15.87c2.52,4.77,5.61,9.42,6.93,14.71h.8l1,.08c6.22,1,12.35,3.32,18.48,4.73,11.79,2.36,24.37,1.44,35.91-1.65C84,136.25,87.62,134.85,91.15,134.17Z"/><path class="cls-3" d="M34.35,60.94c-1.52-5.21-4.49-7.38-.12-10.86-.68,3.28.92,6.49.12,10.86ZM35,67c-.88-2.12.36-3.69-1.72-5.29-.12-3.77-2.49-5.13-2.09-6.81a4.65,4.65,0,0,0,1.09,7.61c.6,2.09.8,4.17,2.72,4.49Zm-6.33-6.61c-2.65,4.57-.8,6.81,3.25,7.73,2,1.57,2.8,4.57,4.44,4.61a15.71,15.71,0,0,0-3-5.85c-.52-2.85-3.41-4.73-4.65-6.49Zm-2.33,6.33c1.49,2.85,4.09,2,5.29,2.89,2.17.76,2.13,3.4,4.65,4.2,1.45.41,1.65,3.25,3.33,4.33-2.72.48-4.81-2.6-7.21-3.44-4.65-.24-8-3.09-6.06-8ZM25.25,73.2c-1.28,4.57-.16,8.22,2.65,9.42,3,1,4.21-1.2,6.69-1.12,3-.44,5.09,1.64,8.22.64a24.73,24.73,0,0,0-3.21-2.68c-3.17-.48-4.49-2.77-7.05-3.73-3.21-.56-4.37.48-7.3-2.53ZM26,85c5.25,2.48,5.61-1.41,7.62-2a7.62,7.62,0,0,1,5.41.48,8.51,8.51,0,0,1,8.38,1.09,21.72,21.72,0,0,1-6.94,2.36c-3.12,1.16-3.24,6.41-8.53,5.89-3.25,0-6.5-3.88-5.94-7.81Zm8.26,10.54c2.32,4.05,8.3,5.53,11.7,2,3.37-2.88,3.13-9.74,6.34-10.82,0-.44-.08-.88-.12-1.36-1.53.92-3.21-.6-4.73-.28-1.69.4-2.25,1.88-4.53,2.16-1.61.2-3.57,1.44-3.81,4.61-.44,1.85-1.24,5.09-4.85,3.73Zm50.1-34.67c1.53-5.21,4.49-7.38.12-10.86.68,3.28-.92,6.49-.12,10.86Zm-.64,6c.88-2.12-.36-3.69,1.72-5.29.12-3.77,2.49-5.13,2.09-6.81a4.65,4.65,0,0,1-1.08,7.61c-.6,2.09-.81,4.17-2.73,4.49ZM90,60.22c2.65,4.57.81,6.81-3.24,7.73-2,1.57-2.81,4.57-4.45,4.61a15.71,15.71,0,0,1,3-5.85C85.9,63.86,88.78,62,90,60.22Zm2.33,6.33c-1.48,2.85-4.09,2-5.29,2.89-2.17.76-2.13,3.4-4.65,4.2-1.44.41-1.65,3.25-3.33,4.33,2.73.48,4.81-2.6,7.22-3.44,4.65-.24,8-3.09,6-8Zm1.08,6.53c1.28,4.57.16,8.22-2.64,9.42-3,1-4.21-1.2-6.7-1.12-3-.44-5.09,1.64-8.22.64a25.42,25.42,0,0,1,3.21-2.68c3.17-.49,4.49-2.77,7.06-3.73,3.2-.56,4.36.48,7.29-2.53Zm-.72,11.75c-5.25,2.48-5.61-1.41-7.62-2a7.63,7.63,0,0,0-5.41.48,8.49,8.49,0,0,0-8.37,1.09,21.57,21.57,0,0,0,6.93,2.36c3.13,1.16,3.25,6.41,8.54,5.89,3.24,0,6.49-3.88,5.93-7.81ZM84.45,95.37c-2.32,4-8.29,5.53-11.7,2-3.37-2.88-3.13-9.74-6.33-10.82,0-.44.08-.88.12-1.36,1.52.92,3.2-.6,4.73-.28,1.68.4,2.24,1.88,4.52,2.16,1.61.2,3.57,1.44,3.81,4.61C80,93.48,80.85,96.73,84.45,95.37Z"/><path class="cls-5" d="M58.36,83.5h2.36c-.4,3.37,1,3.57,1.45,4.29a6.46,6.46,0,0,1-.6,3c-.57,3,1,6.49-1.69,8.9a2.53,2.53,0,0,1-1.32-.12c-1.4-.72-2.2-2.17-3.33-3.61-.56-.6-.32-1.8.48-1.92.56,0,1,.56,1.69.6-1.77-2.61-.12-3.29-.36-5-1-.89-.08-1.89-.4-2.89,2.44-.92.68-2.56,1.72-3.17Zm.56,3.13a22,22,0,0,0-.28,6.57c0,1,.64,1.73.44,3.17-.52.12-.92-.84-1.36-1s-1.49.28-.52,1.36a2.08,2.08,0,0,0,2.44.92c1-.36.28-2,.52-3.24-.68-2.41-.08-5.21.08-7.74A1.71,1.71,0,0,0,58.92,86.63Z"/><path class="cls-5" d="M53.67,81.94c-.64-1,.2-1.72.88-1.08.4.56.88.92,1.36.4,1.85-4.57,1.85-12.71,1.09-17.8a26,26,0,0,1,2.24-16.27c2.17,5.45,2.69,9.86,1.36,16.87-1.6,7.46,1.57,14,3.57,19-6.13-1.64-8.78,1.21-10.5-1.12Zm5.61-30.78c-1.6,5.85-.48,12.14-1,18,0,4.89-.36,9.18-1.44,12.27,1.6.08,3.24.12,4.77.16-1.45-4-2-7.7-2.25-13.39C59.2,63.46,61.21,58.21,59.28,51.16Z"/><path class="cls-6" d="M67.66,37.29c-2.53,1.36-4.09,1.56-7,2C72.51,47,79.16,52.72,71.23,68.39c2.56-3,4.44-3.68,9.62-4.45-5-3.32-6.34-6.57-.09-11.18C74.39,52,71.71,50,76.16,44c-7.22,1.77-9.78-.08-8.5-6.73Zm-16.6,0c2.53,1.36,4.09,1.56,7,2C46.21,47,39.56,52.72,47.5,68.39c-2.57-3-4.45-3.68-9.62-4.45,5-3.32,6.33-6.57.08-11.18C44.33,52,47,50,42.57,44,49.78,45.79,52.35,43.94,51.06,37.29Z"/><path class="cls-4" d="M52.71,51.36c-1.53,1.4-2.85,1.88-3.93,3.29C47.1,57,49.9,60.1,51.87,60.54c-.65,1.24-1.45,3.4.68,4a3.15,3.15,0,0,0,2.16,4c.12.52.16.93-.12,1.17C52.07,70.88,50.1,72,48.1,72.36c-4.41.12-5.21,3.29-4.41,5,1.24,2.33,3.85,4,5.85,5.29,1.32.76,3.33,1.77,3.69-.32-1.2-2.8.64-3.2,1.64-2.24.72.24,1-1,1.24-1.77a57.09,57.09,0,0,0,.69-12c-1.17-5.25-1.45-8.86-.2-12.79a12.33,12.33,0,0,0,.4-3c-.89-.6-3.21-.16-4.29.84ZM66.34,51a25.12,25.12,0,0,1,3.8,5.37c2.57,4.13-3.08,6.49-4.21,7.81-.08,1.69.57,3.25-.4,5.22,2.41,1.4,4.93,2.6,7.62,3.88,2,.81,2.6,1.73,1.64,3.77A12,12,0,0,1,69.3,81.9c-2.4,1.2-4.77.32-5.61-2.12C62.73,76,60.6,72.92,61,66.31c1.49-4.89,1.13-8.86.81-13,0-.92-.32-1.92-.36-2.92C62.33,49.8,65.61,50.52,66.34,51Z"/><rect class="cls-7" x="141.83" y="109.98" width="303.63" height="2.69"/><path class="cls-1" d="M149.2,138.1V125.72h-1.7a2.77,2.77,0,0,0-1.81.55,2.25,2.25,0,0,0-.65,1.79h-.44V126.5a2.28,2.28,0,0,1,.14-.77,1.33,1.33,0,0,1,.51-.6,2,2,0,0,1,1.05-.23h9.32v.82H151.2V138.1Z"/><path class="cls-1" d="M158.18,138.1V127.36a3.5,3.5,0,0,0-.25-1.45c-.16-.36-.55-.55-1.15-.55h-.36v-.46h2a2.46,2.46,0,0,1,1.09.2,1.14,1.14,0,0,1,.55.73,5.53,5.53,0,0,1,.16,1.53v2.08a4.08,4.08,0,0,1,1-.65,3.62,3.62,0,0,1,1.48-.29,5.41,5.41,0,0,1,1.28.16,3,3,0,0,1,1.12.56,2.75,2.75,0,0,1,.8,1.11,4.65,4.65,0,0,1,.3,1.79v6h-2v-6a3.62,3.62,0,0,0-.3-1.6,1.94,1.94,0,0,0-.78-.86,2.15,2.15,0,0,0-1-.26,2,2,0,0,0-1.07.31,4.76,4.76,0,0,0-.83.67v7.7Z"/><path class="cls-1" d="M172.9,138.3a4.07,4.07,0,0,1-2.36-.65,4,4,0,0,1-1.45-1.77,6.2,6.2,0,0,1-.49-2.48,6,6,0,0,1,.51-2.53,4.18,4.18,0,0,1,1.43-1.74,3.76,3.76,0,0,1,2.16-.63A4.51,4.51,0,0,1,175,129a3.28,3.28,0,0,1,1.38,1.47,5.16,5.16,0,0,1,.47,2.32l0,.92H170.7a4.81,4.81,0,0,0,.69,2.74,2.17,2.17,0,0,0,1.89,1,2.82,2.82,0,0,0,1.65-.44,4.24,4.24,0,0,0,1.17-1.18l.44.34a4,4,0,0,1-.91,1.15,3.47,3.47,0,0,1-1.2.71A4.47,4.47,0,0,1,172.9,138.3Zm-2.2-5.42h4a5.5,5.5,0,0,0-.51-2.68,1.63,1.63,0,0,0-1.49-.88,1.46,1.46,0,0,0-1,.43A3,3,0,0,0,171,131,6,6,0,0,0,170.7,132.88Z"/><path class="cls-1" d="M185.22,138.1V127.36a3.5,3.5,0,0,0-.25-1.45c-.16-.36-.55-.55-1.15-.55h-.34v-.46h8.6a2,2,0,0,1,1.06.23,1.25,1.25,0,0,1,.5.6,2.06,2.06,0,0,1,.14.77v1.56h-.46a2.22,2.22,0,0,0-.65-1.78,2.76,2.76,0,0,0-1.85-.56h-3.58v5.16h5.34v.82h-5.34v5.58h3.48a3.73,3.73,0,0,0,2.07-.5,3.24,3.24,0,0,0,1.25-1.72l.44.12-.66,1.82a1.78,1.78,0,0,1-.54.8,1.55,1.55,0,0,1-1,.3Z"/><path class="cls-1" d="M196,138.1l3.24-4.42-1.78-3a4.09,4.09,0,0,0-.92-1.12,2.29,2.29,0,0,0-1.08-.48v-.4h1.74a2.18,2.18,0,0,1,1.33.43,4,4,0,0,1,1,1.17l1.18,2,2.6-3.58h1.08l-3.24,4.42,1.8,3a3.63,3.63,0,0,0,.94,1.13,2.38,2.38,0,0,0,1.14.47v.4h-1.84a2.14,2.14,0,0,1-1.33-.43,3.92,3.92,0,0,1-1-1.17l-1.16-2-2.6,3.58Z"/><path class="cls-1" d="M210.32,138.3a4.5,4.5,0,0,1-2.52-.66,4.06,4.06,0,0,1-1.49-1.78,6.45,6.45,0,0,1,0-4.93,4.09,4.09,0,0,1,1.49-1.77,4.5,4.5,0,0,1,2.52-.66,9.24,9.24,0,0,1,1.82.16,2.22,2.22,0,0,1,1.12.54,1.51,1.51,0,0,1,.44,1q.06.57.06,1.71h-.44a2.6,2.6,0,0,0-.81-1.91,2.66,2.66,0,0,0-1.81-.63,2.36,2.36,0,0,0-1.55.52,3.31,3.31,0,0,0-.92,1.43,6.83,6.83,0,0,0-.31,2.13,6.74,6.74,0,0,0,.3,2.1,3.11,3.11,0,0,0,.92,1.45,2.32,2.32,0,0,0,1.58.53,2.93,2.93,0,0,0,1.71-.44,4.24,4.24,0,0,0,1.17-1.18l.46.34a4.27,4.27,0,0,1-.93,1.15,3.47,3.47,0,0,1-1.22.71A4.83,4.83,0,0,1,210.32,138.3Z"/><path class="cls-1" d="M220.12,138.3a4.07,4.07,0,0,1-2.36-.65,4,4,0,0,1-1.45-1.77,6.2,6.2,0,0,1-.49-2.48,6,6,0,0,1,.51-2.53,4.18,4.18,0,0,1,1.43-1.74,3.76,3.76,0,0,1,2.16-.63,4.51,4.51,0,0,1,2.25.51,3.28,3.28,0,0,1,1.38,1.47,5.16,5.16,0,0,1,.47,2.32l0,.92h-6.06a4.81,4.81,0,0,0,.69,2.74,2.17,2.17,0,0,0,1.89,1,2.82,2.82,0,0,0,1.65-.44,4.24,4.24,0,0,0,1.17-1.18l.44.34a4,4,0,0,1-.91,1.15,3.47,3.47,0,0,1-1.2.71A4.47,4.47,0,0,1,220.12,138.3Zm-2.2-5.42h4a5.5,5.5,0,0,0-.51-2.68,1.63,1.63,0,0,0-1.49-.88,1.46,1.46,0,0,0-1,.43,3,3,0,0,0-.72,1.23A6,6,0,0,0,217.92,132.88Z"/><path class="cls-1" d="M226.56,138.1V127.36a3.5,3.5,0,0,0-.25-1.45,1.14,1.14,0,0,0-1.15-.55h-.36v-.46h2a2.46,2.46,0,0,1,1.09.2,1.14,1.14,0,0,1,.55.73,5.53,5.53,0,0,1,.16,1.53V138.1Z"/><path class="cls-1" d="M231.76,138.1V127.36a3.5,3.5,0,0,0-.25-1.45c-.16-.36-.55-.55-1.15-.55H230v-.46h2a2.46,2.46,0,0,1,1.09.2,1.14,1.14,0,0,1,.55.73,5.53,5.53,0,0,1,.16,1.53V138.1Z"/><path class="cls-1" d="M240.66,138.3a4.07,4.07,0,0,1-2.36-.65,4,4,0,0,1-1.45-1.77,6.53,6.53,0,0,1,0-5,4.18,4.18,0,0,1,1.43-1.74,3.71,3.71,0,0,1,2.16-.63,4.56,4.56,0,0,1,2.25.51,3.28,3.28,0,0,1,1.38,1.47,5.3,5.3,0,0,1,.47,2.32l0,.92h-6.06a4.81,4.81,0,0,0,.69,2.74,2.17,2.17,0,0,0,1.89,1,2.82,2.82,0,0,0,1.65-.44,4.53,4.53,0,0,0,1.17-1.18l.44.34a4.21,4.21,0,0,1-.91,1.15,3.47,3.47,0,0,1-1.2.71A4.55,4.55,0,0,1,240.66,138.3Zm-2.2-5.42h4a5.5,5.5,0,0,0-.51-2.68,1.64,1.64,0,0,0-1.49-.88,1.46,1.46,0,0,0-1,.43,3,3,0,0,0-.72,1.23A6,6,0,0,0,238.46,132.88Z"/><path class="cls-1" d="M247.34,138.1v-6.94a3.5,3.5,0,0,0-.25-1.45c-.16-.36-.55-.55-1.15-.55h-.34v-.46h1.84a2.57,2.57,0,0,1,1.13.2,1.28,1.28,0,0,1,.57.58,5.47,5.47,0,0,1,1.09-.66,4,4,0,0,1,1.67-.32,4.66,4.66,0,0,1,1.75.32,2.65,2.65,0,0,1,1.27,1.1,4.23,4.23,0,0,1,.48,2.2v6h-2v-6a3.58,3.58,0,0,0-.3-1.59,2,2,0,0,0-.78-.85,2.2,2.2,0,0,0-1-.26,2.24,2.24,0,0,0-1.09.28,3.65,3.65,0,0,0-.83.64v7.76Z"/><path class="cls-1" d="M261.26,138.3a2.57,2.57,0,0,1-1.84-.65,2.63,2.63,0,0,1-.7-2v-6.1h-1.34v-.82h1.34v-1.8l1-1.2h1v3h2.34v.82h-2.34v6.12a2.35,2.35,0,0,0,.33,1.4,1.12,1.12,0,0,0,1,.44,2.29,2.29,0,0,0,.88-.14,4.24,4.24,0,0,0,.64-.3l.22.44a4.2,4.2,0,0,1-.92.55A3.88,3.88,0,0,1,261.26,138.3Z"/><path class="cls-1" d="M280.34,138.3a3,3,0,0,1-1.28-.27,3.78,3.78,0,0,1-1.15-.9,10.91,10.91,0,0,1-1.23-1.73l-2-3.38h-1.24v6.08h-2V127.36a3.5,3.5,0,0,0-.25-1.45c-.16-.36-.55-.55-1.15-.55h-.34v-.46H275c.34,0,.73,0,1.18.07a8,8,0,0,1,1.36.27,4.86,4.86,0,0,1,1.26.6,3.07,3.07,0,0,1,.94,1,3.3,3.3,0,0,1,.36,1.61,3.06,3.06,0,0,1-.48,1.79,3.16,3.16,0,0,1-1.22,1.05,7.79,7.79,0,0,1-1.5.56l2.1,3.5a6.15,6.15,0,0,0,1.37,1.74,2.57,2.57,0,0,0,1.27.54v.42a1.79,1.79,0,0,1-.51.14A4.38,4.38,0,0,1,280.34,138.3Zm-6.9-7h1.38a3.59,3.59,0,0,0,1-.15,3.29,3.29,0,0,0,1-.48,2.6,2.6,0,0,0,.77-.87,2.68,2.68,0,0,0,.3-1.32,2.64,2.64,0,0,0-.3-1.31,2.81,2.81,0,0,0-.77-.87,3.45,3.45,0,0,0-2-.66,5.9,5.9,0,0,0-.66,0q-.37.06-.72.15Z"/><path class="cls-1" d="M286.66,138.3a4.07,4.07,0,0,1-2.36-.65,4,4,0,0,1-1.45-1.77,6.53,6.53,0,0,1,0-5,4.18,4.18,0,0,1,1.43-1.74,3.71,3.71,0,0,1,2.16-.63,4.56,4.56,0,0,1,2.25.51,3.28,3.28,0,0,1,1.38,1.47,5.3,5.3,0,0,1,.47,2.32l0,.92h-6.06a4.81,4.81,0,0,0,.69,2.74,2.17,2.17,0,0,0,1.89,1,2.82,2.82,0,0,0,1.65-.44,4.53,4.53,0,0,0,1.17-1.18l.44.34a4.21,4.21,0,0,1-.91,1.15,3.47,3.47,0,0,1-1.2.71A4.55,4.55,0,0,1,286.66,138.3Zm-2.2-5.42h4a5.5,5.5,0,0,0-.51-2.68,1.64,1.64,0,0,0-1.49-.88,1.46,1.46,0,0,0-1,.43,3,3,0,0,0-.72,1.23A6,6,0,0,0,284.46,132.88Z"/><path class="cls-1" d="M296.22,138.3a7.68,7.68,0,0,1-2-.21,2.64,2.64,0,0,1-1.16-.59,1.51,1.51,0,0,1-.42-.9,11.32,11.32,0,0,1-.06-1.28h.48a2.58,2.58,0,0,0,.82,1.57,2.76,2.76,0,0,0,1.92.59,2.62,2.62,0,0,0,1.64-.4,1.27,1.27,0,0,0,0-2,5.06,5.06,0,0,0-1.34-.75l-1.16-.5a5.21,5.21,0,0,1-1.79-1.1,2.17,2.17,0,0,1-.65-1.62,2.23,2.23,0,0,1,1-2,4.3,4.3,0,0,1,2.46-.67,7.39,7.39,0,0,1,1.92.21,2.54,2.54,0,0,1,1.14.59,1.54,1.54,0,0,1,.44.9,11.57,11.57,0,0,1,.06,1.28h-.48a2.64,2.64,0,0,0-.82-1.57,2.71,2.71,0,0,0-1.86-.59,2.25,2.25,0,0,0-1.44.4,1.26,1.26,0,0,0-.07,1.92,3.67,3.67,0,0,0,1.13.72l1.2.5a6.77,6.77,0,0,1,2,1.16,2.37,2.37,0,0,1-.37,3.61A4.72,4.72,0,0,1,296.22,138.3Z"/><path class="cls-1" d="M306.12,138.3a4.07,4.07,0,0,1-2.36-.65,4,4,0,0,1-1.45-1.77,6.53,6.53,0,0,1,0-5,4.18,4.18,0,0,1,1.43-1.74,3.71,3.71,0,0,1,2.16-.63,4.56,4.56,0,0,1,2.25.51,3.28,3.28,0,0,1,1.38,1.47,5.3,5.3,0,0,1,.47,2.32l0,.92h-6.06a4.81,4.81,0,0,0,.69,2.74,2.17,2.17,0,0,0,1.89,1,2.82,2.82,0,0,0,1.65-.44,4.53,4.53,0,0,0,1.17-1.18l.44.34a4.21,4.21,0,0,1-.91,1.15,3.47,3.47,0,0,1-1.2.71A4.55,4.55,0,0,1,306.12,138.3Zm-2.2-5.42h4a5.5,5.5,0,0,0-.51-2.68,1.64,1.64,0,0,0-1.49-.88,1.46,1.46,0,0,0-1,.43,3,3,0,0,0-.72,1.23A6,6,0,0,0,303.92,132.88Z"/><path class="cls-1" d="M314.86,138.3a3.82,3.82,0,0,1-1.06-.15,3,3,0,0,1-1-.48,2.46,2.46,0,0,1-.73-.86,2.67,2.67,0,0,1-.28-1.29,2.24,2.24,0,0,1,.65-1.68,3.84,3.84,0,0,1,1.82-.89,12.11,12.11,0,0,1,2.71-.27h.52a6.54,6.54,0,0,0-.26-2.08,1.83,1.83,0,0,0-.72-1,2.07,2.07,0,0,0-1.06-.28,2.46,2.46,0,0,0-1.36.36,2.1,2.1,0,0,0-.78,1.38h-1a8.14,8.14,0,0,1,.06-1,1.49,1.49,0,0,1,.44-.86,2.35,2.35,0,0,1,1.23-.54,10.22,10.22,0,0,1,1.77-.16,5.36,5.36,0,0,1,1.42.19,2.93,2.93,0,0,1,1.16.64,3.07,3.07,0,0,1,.79,1.27,6.52,6.52,0,0,1,.29,2.1v5.4h-1.18l-.7-.9h-.1a2.77,2.77,0,0,1-1,.75A3.64,3.64,0,0,1,314.86,138.3Zm.82-.92a1.65,1.65,0,0,0,1.15-.39,3.23,3.23,0,0,0,.69-.85V133.5H317a4,4,0,0,0-2.27.54,1.7,1.7,0,0,0-.79,1.48,1.75,1.75,0,0,0,.52,1.4A1.77,1.77,0,0,0,315.68,137.38Z"/><path class="cls-1" d="M322.68,138.1v-6.94a3.5,3.5,0,0,0-.25-1.45,1.14,1.14,0,0,0-1.15-.55h-.2v-.46h1.7a2.44,2.44,0,0,1,1.13.21,1.26,1.26,0,0,1,.57.65,4.9,4.9,0,0,1,1-.7,3.07,3.07,0,0,1,1.51-.36,3.25,3.25,0,0,1,.69.08,1.88,1.88,0,0,1,.57.24,1.71,1.71,0,0,1,.42.43c.11.17.2.33.28.47l-.86.66a1.52,1.52,0,0,0-.62-.48,2.22,2.22,0,0,0-.92-.18,2.44,2.44,0,0,0-1.1.25,2.38,2.38,0,0,0-.78.65c0,.12,0,.25,0,.38v7.1Z"/><path class="cls-1" d="M334.58,138.3a4.5,4.5,0,0,1-2.52-.66,4,4,0,0,1-1.49-1.78,6.45,6.45,0,0,1,0-4.93,4,4,0,0,1,1.49-1.77,4.5,4.5,0,0,1,2.52-.66,9.24,9.24,0,0,1,1.82.16,2.26,2.26,0,0,1,1.12.54,1.56,1.56,0,0,1,.44,1q.06.57.06,1.71h-.44a2.6,2.6,0,0,0-.81-1.91,2.68,2.68,0,0,0-1.81-.63,2.34,2.34,0,0,0-1.55.52,3.23,3.23,0,0,0-.92,1.43,6.55,6.55,0,0,0-.31,2.13,6.74,6.74,0,0,0,.3,2.1,3.11,3.11,0,0,0,.92,1.45,2.31,2.31,0,0,0,1.58.53,2.93,2.93,0,0,0,1.71-.44,4.53,4.53,0,0,0,1.17-1.18l.46.34a4.68,4.68,0,0,1-.93,1.15,3.47,3.47,0,0,1-1.22.71A4.83,4.83,0,0,1,334.58,138.3Z"/><path class="cls-1" d="M340.6,138.1V127.36a3.5,3.5,0,0,0-.25-1.45,1.14,1.14,0,0,0-1.15-.55h-.36v-.46h2a2.46,2.46,0,0,1,1.09.2,1.17,1.17,0,0,1,.55.73,5.53,5.53,0,0,1,.16,1.53v2.08a3.74,3.74,0,0,1,1-.65,3.62,3.62,0,0,1,1.48-.29,5.41,5.41,0,0,1,1.28.16,3.11,3.11,0,0,1,1.12.56,2.84,2.84,0,0,1,.8,1.11,4.65,4.65,0,0,1,.3,1.79v6h-2v-6a3.62,3.62,0,0,0-.3-1.6,1.94,1.94,0,0,0-.78-.86,2.15,2.15,0,0,0-1-.26,2,2,0,0,0-1.07.31,4.41,4.41,0,0,0-.83.67v7.7Z"/><path class="cls-1" d="M362.56,138.3a6,6,0,0,1-3-.66,3.71,3.71,0,0,1-1.64-2,9.39,9.39,0,0,1-.5-3.28v-5a3.68,3.68,0,0,0-.24-1.45,1.08,1.08,0,0,0-1.1-.55h-.36v-.46h1.92a2.46,2.46,0,0,1,1.09.2,1.17,1.17,0,0,1,.55.73,5.53,5.53,0,0,1,.16,1.53V133a6,6,0,0,0,.78,3.3,2.93,2.93,0,0,0,2.66,1.2,4.47,4.47,0,0,0,2.37-.54,3,3,0,0,0,1.26-1.67,9,9,0,0,0,.39-2.89V124.9h.86v7.48a10.17,10.17,0,0,1-.45,3.26,3.56,3.56,0,0,1-1.56,2A6.1,6.1,0,0,1,362.56,138.3Z"/><path class="cls-1" d="M371.2,138.1v-6.94a3.5,3.5,0,0,0-.25-1.45,1.14,1.14,0,0,0-1.15-.55h-.34v-.46h1.84a2.6,2.6,0,0,1,1.13.2,1.28,1.28,0,0,1,.57.58,5.47,5.47,0,0,1,1.09-.66,4,4,0,0,1,1.67-.32,4.7,4.7,0,0,1,1.75.32,2.65,2.65,0,0,1,1.27,1.1,4.23,4.23,0,0,1,.48,2.2v6h-2v-6a3.58,3.58,0,0,0-.3-1.59,2,2,0,0,0-.78-.85,2.2,2.2,0,0,0-1-.26,2.24,2.24,0,0,0-1.09.28,3.65,3.65,0,0,0-.83.64v7.76Z"/><path class="cls-1" d="M382.52,138.1v-6.94a3.5,3.5,0,0,0-.25-1.45,1.14,1.14,0,0,0-1.15-.55h-.34v-.46h1.94a2.46,2.46,0,0,1,1.09.2,1.17,1.17,0,0,1,.55.73,5.53,5.53,0,0,1,.16,1.53v6.94Zm.9-10.56a1.08,1.08,0,0,1-.88-.41,1.42,1.42,0,0,1-.34-.95.9.9,0,0,1,.27-.69,1,1,0,0,1,.69-.25,1.13,1.13,0,0,1,.88.4,1.4,1.4,0,0,1,.34.94.91.91,0,0,1-.27.7A.93.93,0,0,1,383.42,127.54Z"/><path class="cls-1" d="M391.16,138.3,388,131a5.53,5.53,0,0,0-.91-1.57,1.6,1.6,0,0,0-1.09-.49v-.4l.32,0,.38,0a4.68,4.68,0,0,1,1.29.19,3.06,3.06,0,0,1,1.2.73,5,5,0,0,1,1,1.58l1.78,4.18,2.78-6.48h1l-4.14,9.6Z"/><path class="cls-1" d="M401.36,138.3a4.07,4.07,0,0,1-2.36-.65,4,4,0,0,1-1.45-1.77,6.53,6.53,0,0,1,0-5,4.18,4.18,0,0,1,1.43-1.74,3.71,3.71,0,0,1,2.16-.63,4.56,4.56,0,0,1,2.25.51,3.28,3.28,0,0,1,1.38,1.47,5.3,5.3,0,0,1,.47,2.32l0,.92h-6.06a4.81,4.81,0,0,0,.69,2.74,2.17,2.17,0,0,0,1.89,1,2.82,2.82,0,0,0,1.65-.44,4.53,4.53,0,0,0,1.17-1.18l.44.34a4.21,4.21,0,0,1-.91,1.15,3.47,3.47,0,0,1-1.2.71A4.55,4.55,0,0,1,401.36,138.3Zm-2.2-5.42h4a5.5,5.5,0,0,0-.51-2.68,1.64,1.64,0,0,0-1.49-.88,1.46,1.46,0,0,0-1,.43,3,3,0,0,0-.72,1.23A6,6,0,0,0,399.16,132.88Z"/><path class="cls-1" d="M407.94,138.1v-6.94a3.5,3.5,0,0,0-.25-1.45,1.14,1.14,0,0,0-1.15-.55h-.2v-.46H408a2.44,2.44,0,0,1,1.13.21,1.26,1.26,0,0,1,.57.65,4.9,4.9,0,0,1,1-.7,3.07,3.07,0,0,1,1.51-.36,3.25,3.25,0,0,1,.69.08,1.88,1.88,0,0,1,.57.24,1.71,1.71,0,0,1,.42.43c.11.17.2.33.28.47l-.86.66a1.52,1.52,0,0,0-.62-.48,2.22,2.22,0,0,0-.92-.18,2.44,2.44,0,0,0-1.1.25,2.38,2.38,0,0,0-.78.65c0,.12,0,.25,0,.38v7.1Z"/><path class="cls-1" d="M419.24,138.3a7.68,7.68,0,0,1-2-.21,2.64,2.64,0,0,1-1.16-.59,1.51,1.51,0,0,1-.42-.9,11.32,11.32,0,0,1-.06-1.28h.48a2.58,2.58,0,0,0,.82,1.57,2.76,2.76,0,0,0,1.92.59,2.62,2.62,0,0,0,1.64-.4,1.27,1.27,0,0,0,0-2,5.06,5.06,0,0,0-1.34-.75l-1.16-.5a5.21,5.21,0,0,1-1.79-1.1,2.17,2.17,0,0,1-.65-1.62,2.23,2.23,0,0,1,1-2,4.3,4.3,0,0,1,2.46-.67,7.39,7.39,0,0,1,1.92.21,2.54,2.54,0,0,1,1.14.59,1.54,1.54,0,0,1,.44.9,11.57,11.57,0,0,1,.06,1.28h-.48a2.64,2.64,0,0,0-.82-1.57,2.71,2.71,0,0,0-1.86-.59,2.25,2.25,0,0,0-1.44.4,1.26,1.26,0,0,0-.07,1.92,3.67,3.67,0,0,0,1.13.72l1.2.5a6.77,6.77,0,0,1,2,1.16,2.37,2.37,0,0,1-.37,3.61A4.72,4.72,0,0,1,419.24,138.3Z"/><path class="cls-1" d="M425.68,138.1v-6.94a3.5,3.5,0,0,0-.25-1.45,1.14,1.14,0,0,0-1.15-.55h-.34v-.46h1.94a2.46,2.46,0,0,1,1.09.2,1.17,1.17,0,0,1,.55.73,5.53,5.53,0,0,1,.16,1.53v6.94Zm.9-10.56a1.08,1.08,0,0,1-.88-.41,1.42,1.42,0,0,1-.34-.95.9.9,0,0,1,.27-.69,1,1,0,0,1,.69-.25,1.13,1.13,0,0,1,.88.4,1.4,1.4,0,0,1,.34.94.91.91,0,0,1-.27.7A.93.93,0,0,1,426.58,127.54Z"/><path class="cls-1" d="M433.58,138.3a2.57,2.57,0,0,1-1.84-.65,2.63,2.63,0,0,1-.7-2v-6.1H429.7v-.82H431v-1.8l1-1.2h1v3h2.34v.82h-2.34v6.12a2.35,2.35,0,0,0,.33,1.4,1.12,1.12,0,0,0,1,.44,2.29,2.29,0,0,0,.88-.14,4.24,4.24,0,0,0,.64-.3l.22.44a4.2,4.2,0,0,1-.92.55A3.88,3.88,0,0,1,433.58,138.3Z"/><path class="cls-1" d="M438.44,142.1v-.62a2.91,2.91,0,0,0,1.6-.41,3.23,3.23,0,0,0,1.14-1.65l.4-1.1-3.3-7.82a2.46,2.46,0,0,0-.85-1.14,2.85,2.85,0,0,0-1.27-.46v-.4h1.72a2.5,2.5,0,0,1,2.46,1.6l2.28,5.4,2.5-6.8h1l-3.94,10.7a6.17,6.17,0,0,1-.86,1.68,2.41,2.41,0,0,1-1,.8,3.28,3.28,0,0,1-1.25.22Z"/><path class="cls-8" d="M485.83,0h5.63a0,0,0,0,1,0,0V140.08a8,8,0,0,1-8,8h-5.62a0,0,0,0,1,0,0V8A8,8,0,0,1,485.83,0Z"/><path class="cls-1" d="M533.71,14.28A6.42,6.42,0,0,1,535,18.59v2.85q0,5.74-5.54,5.75h-2.35v9.38h-2.65V12.77h5.2A5.06,5.06,0,0,1,533.71,14.28Zm-2,9.78a3.5,3.5,0,0,0,.71-2.45V18.45a3.92,3.92,0,0,0-.64-2.47,2.53,2.53,0,0,0-2.08-.79h-2.55v9.62h2.35A2.92,2.92,0,0,0,531.69,24.06Z"/><path class="cls-1" d="M546.39,14.13a5.78,5.78,0,0,1,1.28,4.08v1.94a6.29,6.29,0,0,1-.72,3.2,3.78,3.78,0,0,1-2.24,1.7A3.77,3.77,0,0,1,547,26.76,6.55,6.55,0,0,1,547.7,30v3.71a12.49,12.49,0,0,0,.09,1.64,3.19,3.19,0,0,0,.39,1.21h-2.69a4.85,4.85,0,0,1-.34-1.14,10.91,10.91,0,0,1-.1-1.75V29.94a3.61,3.61,0,0,0-.87-2.74,3.71,3.71,0,0,0-2.6-.79h-1.87V36.57h-2.65V12.77h5.3A5.31,5.31,0,0,1,546.39,14.13Zm-2.17,9.15a3.26,3.26,0,0,0,.83-2.55V18.45A3.85,3.85,0,0,0,544.4,16a2.53,2.53,0,0,0-2.1-.81h-2.59V24h2A3.86,3.86,0,0,0,544.22,23.28Z"/><path class="cls-1" d="M551.49,14.13a6,6,0,0,1,8.15,0A6.46,6.46,0,0,1,561,18.52V30.83a6.43,6.43,0,0,1-1.39,4.38,6,6,0,0,1-8.13,0,6.43,6.43,0,0,1-1.39-4.38V18.52A6.56,6.56,0,0,1,551.49,14.13Zm2,19.38a2.55,2.55,0,0,0,2.11.89q2.82,0,2.82-3.44V18.38a4,4,0,0,0-.7-2.53,2.94,2.94,0,0,0-4.23,0,4,4,0,0,0-.72,2.53V31A4,4,0,0,0,553.45,33.51Z"/><path class="cls-1" d="M572.57,14.13a6.6,6.6,0,0,1,1.35,4.39v2H571.4V18.38q0-3.43-2.79-3.43a2.48,2.48,0,0,0-2.09.9,4.07,4.07,0,0,0-.7,2.53V31a4.07,4.07,0,0,0,.7,2.53,2.46,2.46,0,0,0,2.09.91q2.79,0,2.79-3.44V26.2H569V23.82h5v7a6.57,6.57,0,0,1-1.35,4.38,5.82,5.82,0,0,1-8,0,6.57,6.57,0,0,1-1.34-4.38V18.52a6.6,6.6,0,0,1,1.34-4.39,5.82,5.82,0,0,1,8,0Z"/><path class="cls-1" d="M585.63,14.13a5.78,5.78,0,0,1,1.27,4.08v1.94a6.29,6.29,0,0,1-.71,3.2,3.81,3.81,0,0,1-2.24,1.7,3.72,3.72,0,0,1,2.27,1.71,6.44,6.44,0,0,1,.72,3.25v3.71a14.81,14.81,0,0,0,.08,1.64,3.38,3.38,0,0,0,.39,1.21h-2.68a4.85,4.85,0,0,1-.34-1.14,10.91,10.91,0,0,1-.1-1.75V29.94a3.61,3.61,0,0,0-.87-2.74,3.74,3.74,0,0,0-2.6-.79H579V36.57H576.3V12.77h5.3A5.31,5.31,0,0,1,585.63,14.13Zm-2.18,9.15a3.23,3.23,0,0,0,.84-2.55V18.45a3.91,3.91,0,0,0-.65-2.45,2.54,2.54,0,0,0-2.11-.81H579V24h2A3.84,3.84,0,0,0,583.45,23.28Z"/><path class="cls-1" d="M591.32,36.57h-2.44l4.55-23.8h3.84l4.56,23.8h-2.65l-.92-4.79h-6Zm6.57-7.07L595.2,15.76,592.58,29.5Z"/><path class="cls-1" d="M610,36.54,606.05,17.6v19h-2.32V12.77h3.71l3.91,19,3.77-19h3.71v23.8h-2.52V17.43l-3.77,19.11Z"/><path class="cls-1" d="M635.51,14.11a6.6,6.6,0,0,1,1.34,4.37v.65h-2.52v-.78c0-2.27-.9-3.4-2.72-3.4s-2.72,1.12-2.72,3.36a4.55,4.55,0,0,0,.92,2.88,16,16,0,0,0,2.75,2.6c1,.81,1.74,1.51,2.3,2.07A7.67,7.67,0,0,1,636.29,28a6.78,6.78,0,0,1,.59,2.89,6.48,6.48,0,0,1-1.36,4.37,5,5,0,0,1-4,1.58,4.94,4.94,0,0,1-4-1.58,6.53,6.53,0,0,1-1.35-4.37V29.5h2.48V31a4,4,0,0,0,.7,2.51,2.9,2.9,0,0,0,4.18,0,4,4,0,0,0,.7-2.51,4.48,4.48,0,0,0-.9-2.83,16.3,16.3,0,0,0-2.74-2.61c-.93-.77-1.68-1.45-2.26-2a7.48,7.48,0,0,1-1.46-2.14,6.76,6.76,0,0,1-.6-2.91,6.59,6.59,0,0,1,1.33-4.38,5.75,5.75,0,0,1,7.91,0Z"/><path class="cls-1" d="M642.53,15.19h-4.39V12.77h11.43v2.42h-4.39V36.57h-2.65Z"/><path class="cls-1" d="M656.57,34.4a2.44,2.44,0,0,0,2.07-.89,4.08,4.08,0,0,0,.68-2.55V12.77h2.49V30.83a6.76,6.76,0,0,1-1.33,4.42,4.92,4.92,0,0,1-4,1.59,4.83,4.83,0,0,1-4-1.61,6.72,6.72,0,0,1-1.33-4.4V12.77h2.62V31Q653.78,34.39,656.57,34.4Z"/><path class="cls-1" d="M673.93,14.32a6.49,6.49,0,0,1,1.34,4.37v12A6.41,6.41,0,0,1,673.93,35a5.08,5.08,0,0,1-4.07,1.55h-5.57V12.77h5.57A5.11,5.11,0,0,1,673.93,14.32Zm-1.28,16.47V18.55q0-3.36-2.86-3.36h-2.85v19h2.89Q672.65,34.16,672.65,30.79Z"/><path class="cls-1" d="M680.27,36.57h-2.66V12.77h2.66Z"/><path class="cls-1" d="M696.94,14.11a6.55,6.55,0,0,1,1.35,4.37v.65h-2.52v-.78q0-3.41-2.72-3.4t-2.72,3.36a4.55,4.55,0,0,0,.92,2.88,16,16,0,0,0,2.75,2.6c1,.81,1.74,1.51,2.3,2.07A7.9,7.9,0,0,1,697.73,28a6.78,6.78,0,0,1,.59,2.89A6.48,6.48,0,0,1,697,35.23a5.87,5.87,0,0,1-8,0,6.58,6.58,0,0,1-1.34-4.37V29.5h2.48V31a4,4,0,0,0,.7,2.51,2.9,2.9,0,0,0,4.18,0,4,4,0,0,0,.7-2.51,4.48,4.48,0,0,0-.9-2.83A16.7,16.7,0,0,0,692,25.56c-.93-.77-1.68-1.45-2.26-2a7.29,7.29,0,0,1-1.46-2.14,6.76,6.76,0,0,1-.6-2.91A6.53,6.53,0,0,1,689,14.1a5.74,5.74,0,0,1,7.9,0Z"/><path class="cls-1" d="M709.86,14.13a6.65,6.65,0,0,1,1.35,4.42,8.62,8.62,0,0,1-.62,3.3,11.11,11.11,0,0,1-1.49,2.65c-.59.77-1.37,1.69-2.35,2.76s-1.49,1.72-2,2.31a8.77,8.77,0,0,0-1.19,1.95,5.49,5.49,0,0,0-.48,2.26v.38h7.82v2.41H700.5v-2a9.3,9.3,0,0,1,.57-3.35,11,11,0,0,1,1.43-2.58c.57-.74,1.32-1.6,2.25-2.6s1.51-1.69,2-2.35A9.38,9.38,0,0,0,708,21.41a7.29,7.29,0,0,0,.51-2.76,4.86,4.86,0,0,0-.66-2.8,2.83,2.83,0,0,0-4.21,0,4.17,4.17,0,0,0-.7,2.57v2.1H700.5V18.59a6.81,6.81,0,0,1,1.32-4.44,4.89,4.89,0,0,1,4-1.62A5,5,0,0,1,709.86,14.13Z"/><path class="cls-1" d="M531.49,126.35h-4.83v9.09h-2.34v-21h8.34v2.13h-6v7.65h4.83Z"/><path class="cls-1" d="M536.77,135.44h-2.16l4-21H542l4,21H543.7l-.81-4.23h-5.31Zm5.79-6.24-2.37-12.12-2.31,12.12Z"/><path class="cls-1" d="M551.29,128.39v7.05H549v-21h2.34v10.14l5.58-10.14h2.37L553.93,124l5.49,11.43H557l-4.5-9.12Z"/><path class="cls-1" d="M566.86,133.52a2.16,2.16,0,0,0,1.83-.78,3.63,3.63,0,0,0,.6-2.25V114.44h2.19v15.93a5.93,5.93,0,0,1-1.17,3.9,4.34,4.34,0,0,1-3.54,1.41,4.28,4.28,0,0,1-3.51-1.43,5.93,5.93,0,0,1-1.17-3.88V114.44h2.31v16.05Q564.4,133.52,566.86,133.52Z"/><path class="cls-1" d="M574.87,114.44h2.34v18.87h6v2.13h-8.34Z"/><path class="cls-1" d="M587.59,116.57h-3.87v-2.13h10v2.13H589.9v18.87h-2.31Z"/><path class="cls-1" d="M596.86,135.44H594.7l4-21h3.39l4,21h-2.34l-.81-4.23h-5.31Zm5.79-6.24-2.37-12.12L598,129.2Z"/><path class="cls-1" d="M616.94,115.62a5.79,5.79,0,0,1,1.19,3.86v.57h-2.22v-.69q0-3-2.4-3t-2.4,3a4,4,0,0,0,.81,2.53,14.1,14.1,0,0,0,2.43,2.3c.86.72,1.53,1.33,2,1.83a6.75,6.75,0,0,1,1.26,1.86,5.9,5.9,0,0,1,.53,2.55,5.71,5.71,0,0,1-1.2,3.85,5.16,5.16,0,0,1-7.07,0,5.75,5.75,0,0,1-1.18-3.85v-1.2h2.19v1.32a3.51,3.51,0,0,0,.61,2.22,2.57,2.57,0,0,0,3.69,0,3.51,3.51,0,0,0,.62-2.22A3.93,3.93,0,0,0,615,128a14.67,14.67,0,0,0-2.41-2.31c-.82-.68-1.49-1.28-2-1.79a6.57,6.57,0,0,1-1.29-1.89,6,6,0,0,1-.52-2.56,5.81,5.81,0,0,1,1.17-3.87,5.08,5.08,0,0,1,7,0Z"/><path class="cls-1" d="M631.36,128.39v7.05H629v-21h2.34v10.14l5.58-10.14h2.37L634,124l5.49,11.43h-2.4l-4.5-9.12Z"/><path class="cls-1" d="M649.84,125.84h-5.13v7.47H651v2.13h-8.64v-21H651v2.13h-6.3v7.17h5.13Z"/><path class="cls-1" d="M662.16,115.62a5.78,5.78,0,0,1,1.18,3.86v.57h-2.22v-.69q0-3-2.4-3t-2.4,3a4,4,0,0,0,.81,2.53,14.1,14.1,0,0,0,2.43,2.3c.86.72,1.54,1.33,2,1.83a6.75,6.75,0,0,1,1.26,1.86,5.9,5.9,0,0,1,.52,2.55,5.71,5.71,0,0,1-1.2,3.85,4.42,4.42,0,0,1-3.54,1.4,4.36,4.36,0,0,1-3.52-1.4,5.76,5.76,0,0,1-1.19-3.85v-1.2h2.19v1.32a3.51,3.51,0,0,0,.62,2.22,2.57,2.57,0,0,0,3.69,0,3.51,3.51,0,0,0,.61-2.22,3.92,3.92,0,0,0-.79-2.49,14.79,14.79,0,0,0-2.42-2.31c-.82-.68-1.48-1.28-2-1.79a6.57,6.57,0,0,1-1.29-1.89,6,6,0,0,1-.53-2.56,5.81,5.81,0,0,1,1.17-3.87,5.09,5.09,0,0,1,7,0Z"/><path class="cls-1" d="M674,125.84h-5.13v7.47h6.3v2.13h-8.64v-21h8.64v2.13h-6.3v7.17H674Z"/><path class="cls-1" d="M680.71,135.44h-2.34v-21h2.34v9.45h5.16v-9.45h2.34v21h-2.34V126h-5.16Z"/><path class="cls-1" d="M693.25,135.44h-2.16l4-21h3.39l4,21h-2.34l-.81-4.23h-5.31ZM699,129.2l-2.37-12.12-2.31,12.12Z"/><path class="cls-1" d="M707.32,116.57h-3.87v-2.13h10v2.13h-3.87v18.87h-2.31Z"/><path class="cls-1" d="M716.59,135.44h-2.16l4-21h3.39l4,21h-2.34l-.81-4.23H717.4Zm5.79-6.24L720,117.08,717.7,129.2Z"/><path class="cls-1" d="M728.74,135.44v-21h3l4.86,15.18V114.44h2.07v21h-2.43l-5.37-17v17Z"/><path class="cls-1" d="M755.35,135.41l-3.48-16.71v16.74h-2v-21h3.27l3.45,16.77,3.33-16.77h3.27v21h-2.22V118.55l-3.33,16.86Z"/><path class="cls-1" d="M768.19,135.44H766l4-21h3.39l4,21h-2.34l-.81-4.23H769ZM774,129.2l-2.37-12.12L769.3,129.2Z"/><path class="cls-1" d="M788.28,115.62a5.78,5.78,0,0,1,1.18,3.86v.57h-2.22v-.69q0-3-2.4-3t-2.4,3a4,4,0,0,0,.81,2.53,14.1,14.1,0,0,0,2.43,2.3c.86.72,1.54,1.33,2,1.83a6.75,6.75,0,0,1,1.26,1.86,5.9,5.9,0,0,1,.52,2.55,5.71,5.71,0,0,1-1.2,3.85,4.42,4.42,0,0,1-3.54,1.4,4.36,4.36,0,0,1-3.52-1.4A5.76,5.76,0,0,1,780,130.4v-1.2h2.19v1.32a3.51,3.51,0,0,0,.62,2.22,2.57,2.57,0,0,0,3.69,0,3.51,3.51,0,0,0,.61-2.22,3.92,3.92,0,0,0-.79-2.49,14.79,14.79,0,0,0-2.42-2.31c-.82-.68-1.48-1.28-2-1.79a6.57,6.57,0,0,1-1.29-1.89,6,6,0,0,1-.53-2.56,5.81,5.81,0,0,1,1.17-3.87,5.09,5.09,0,0,1,7,0Z"/><path class="cls-1" d="M791.68,114.44h2.43l3.27,10.32,3.3-10.32h2.22l-4.47,13.47v7.53h-2.31v-7.53Z"/><path class="cls-1" d="M805.75,135.44h-2.16l4-21H811l4,21h-2.34l-.81-4.23h-5.31Zm5.79-6.24-2.37-12.12-2.31,12.12Z"/><path class="cls-1" d="M826.17,115.64a5.09,5.09,0,0,1,1.12,3.6V121a5.56,5.56,0,0,1-.63,2.82,3.33,3.33,0,0,1-2,1.5,3.31,3.31,0,0,1,2,1.51,5.73,5.73,0,0,1,.63,2.87v3.27a11.54,11.54,0,0,0,.08,1.45,2.92,2.92,0,0,0,.34,1.07h-2.37a4.36,4.36,0,0,1-.3-1,9.79,9.79,0,0,1-.09-1.54v-3.3a3.19,3.19,0,0,0-.76-2.42,3.3,3.3,0,0,0-2.3-.7h-1.65v9h-2.34v-21h4.68A4.68,4.68,0,0,1,826.17,115.64Zm-1.92,8.07a2.85,2.85,0,0,0,.73-2.25v-2a3.44,3.44,0,0,0-.57-2.16,2.23,2.23,0,0,0-1.86-.72h-2.28v7.77H822A3.38,3.38,0,0,0,824.25,123.71Z"/><path class="cls-1" d="M832.39,135.44h-2.16l4-21h3.39l4,21h-2.34l-.81-4.23H833.2Zm5.79-6.24-2.37-12.12L833.5,129.2Z"/><path class="cls-1" d="M846.91,128.39v7.05h-2.34v-21h2.34v10.14l5.58-10.14h2.37L849.55,124,855,135.44h-2.4l-4.5-9.12Z"/><path class="cls-1" d="M859.48,135.44h-2.16l4-21h3.39l4,21h-2.34l-.81-4.23h-5.31Zm5.79-6.24-2.37-12.12-2.31,12.12Z"/><path class="cls-1" d="M873.55,116.57h-3.87v-2.13h10.05v2.13h-3.87v18.87h-2.31Z"/><path class="cls-1" d="M540.2,93.7H526V55.1H540.2v4.56H528.88V70.24H540.2V74.8H528.88V89.14H540.2Z"/><path class="cls-1" d="M559.89,66.76a21,21,0,0,1-.5,4.76,14.12,14.12,0,0,1-1.39,3.8,8.41,8.41,0,0,1-2.63,3,6.91,6.91,0,0,1-3.84,1h-2.86V93.7h-2.86V55.1h5.84a8.19,8.19,0,0,1,3.28.58,6.42,6.42,0,0,1,2.39,1.83,10.41,10.41,0,0,1,1.9,3.68A19.4,19.4,0,0,1,559.89,66.76Zm-3,.13a13.71,13.71,0,0,0-.39-3.47A6,6,0,0,0,555.34,61a4,4,0,0,0-1.59-1.16,6.23,6.23,0,0,0-2.24-.35h-2.84V74.93h2.42a6.1,6.1,0,0,0,2.82-.56,4.23,4.23,0,0,0,1.76-1.77,9.49,9.49,0,0,0,1-2.62A15.28,15.28,0,0,0,556.91,66.89Z"/><path class="cls-1" d="M572.33,93.7h-8.51V89.76h2.82V59h-2.82V55.1h8.51V59h-2.82V89.76h2.82Z"/><path class="cls-1" d="M596.46,74.44A33.32,33.32,0,0,1,595.18,84a17.09,17.09,0,0,1-3.41,6.64A8.9,8.9,0,0,1,588.48,93a13.18,13.18,0,0,1-4.78.72h-5.43V55.1h5.38a12.77,12.77,0,0,1,5,.81,9.2,9.2,0,0,1,3.14,2.25,17,17,0,0,1,3.43,6.56A34,34,0,0,1,596.46,74.44Zm-3-.08a28.39,28.39,0,0,0-.89-7.65,11.2,11.2,0,0,0-2.63-4.9,7.27,7.27,0,0,0-2.7-1.8,10.28,10.28,0,0,0-3.43-.51h-2.69V89.3h2.69a10.92,10.92,0,0,0,3.61-.55,6.78,6.78,0,0,0,2.83-2,11.87,11.87,0,0,0,2.4-4.85A29.42,29.42,0,0,0,593.47,74.36Z"/><path class="cls-1" d="M616.34,93.7H602.15V55.1h14.19v4.56H605V70.24h11.32V74.8H605V89.14h11.32Z"/><path class="cls-1" d="M641.13,93.7h-2.87V60.44l-6,22.63h-1.7l-6-22.63V93.7H622V55.1h3.9l5.75,21.49,5.55-21.49h4Z"/><path class="cls-1" d="M655.57,93.7h-8.5V89.76h2.82V59h-2.82V55.1h8.5V59h-2.82V89.76h2.82Z"/><path class="cls-1" d="M677.56,59.53a23.72,23.72,0,0,1,2,6.35,46.62,46.62,0,0,1,.7,8.53,46,46,0,0,1-.72,8.55,23.09,23.09,0,0,1-2,6.28,10.67,10.67,0,0,1-3.14,3.94,7.07,7.07,0,0,1-8.28,0A10.64,10.64,0,0,1,663,89.24a24,24,0,0,1-2-6.3,46.32,46.32,0,0,1-.7-8.53A47,47,0,0,1,661,66a24.49,24.49,0,0,1,2-6.42,10.38,10.38,0,0,1,3.16-3.89,7,7,0,0,1,8.27,0A10.85,10.85,0,0,1,677.56,59.53Zm-.26,14.88q0-7.51-1.88-11.6t-5.13-4.08q-3.28,0-5.16,4.08t-1.87,11.6q0,7.61,1.91,11.63t5.12,4q3.21,0,5.11-4T677.3,74.41Z"/><path class="cls-1" d="M699.51,93.7H685.89V55.1h2.86v34h10.76Z"/><path class="cls-1" d="M719.2,59.53a23.72,23.72,0,0,1,2,6.35,46.62,46.62,0,0,1,.7,8.53,46,46,0,0,1-.71,8.55,23.43,23.43,0,0,1-2,6.28,10.67,10.67,0,0,1-3.14,3.94,7,7,0,0,1-8.27,0,10.54,10.54,0,0,1-3.16-3.92,23.58,23.58,0,0,1-2-6.3,47.21,47.21,0,0,1-.7-8.53,46.06,46.06,0,0,1,.7-8.46,24.13,24.13,0,0,1,2-6.42,10.38,10.38,0,0,1,3.16-3.89,6.93,6.93,0,0,1,4.12-1.35,6.86,6.86,0,0,1,4.15,1.36A10.75,10.75,0,0,1,719.2,59.53Zm-.26,14.88q0-7.51-1.88-11.6t-5.13-4.08q-3.28,0-5.16,4.08t-1.87,11.6q0,7.61,1.91,11.63t5.12,4q3.21,0,5.11-4T718.94,74.41Z"/><path class="cls-1" d="M745.49,90.85a21.51,21.51,0,0,1-3.85,2.53,8.78,8.78,0,0,1-4,1.08A8.9,8.9,0,0,1,733,93.21a10.35,10.35,0,0,1-3.57-3.73,21.05,21.05,0,0,1-2.3-6.29,42.51,42.51,0,0,1-.81-8.83q0-9.26,3-14.61t8.28-5.35a9.75,9.75,0,0,1,3.75.79,16,16,0,0,1,4.13,2.68V64h-.26c-.3-.41-.73-1-1.3-1.63a13.29,13.29,0,0,0-1.68-1.68A9.24,9.24,0,0,0,740,59.31a7.47,7.47,0,0,0-2.88-.53q-3.61,0-5.71,4.16t-2.11,11.27q0,7.49,2.2,11.65t6,4.16a8.18,8.18,0,0,0,2.77-.49,9.25,9.25,0,0,0,2.42-1.27V78.8h-5.77V74.28h8.6Z"/><path class="cls-1" d="M759.16,93.7h-8.51V89.76h2.82V59h-2.82V55.1h8.51V59h-2.82V89.76h2.82Z"/></g></g></svg>